<svg xmlns="http://www.w3.org/2000/svg" width="180" height="72" viewBox="0 0 180 72" fill="none">
<path fill-rule="evenodd" clip-rule="evenodd" d="M45.1211 35.1314L45.7141 33.2294L43.7508 33.292C43.586 33.292 42.3794 33.2559 41.2113 32.4078C41.2991 32.415 41.3845 32.4282 41.476 32.4282C42.679 32.4282 43.8447 31.7016 44.3102 30.6622L45.1548 28.7855C44.0961 28.8 43.1277 28.6664 43.1277 28.6664C43.1193 28.6664 42.3566 28.5666 41.4748 27.6631C40.842 27.0171 40.0588 26.6743 39.2107 26.6743C38.8749 26.6755 38.5414 26.7287 38.2218 26.8318C38.2663 26.6803 38.3085 26.5251 38.3337 26.3663C38.602 24.6099 37.4748 23.2722 37.4748 23.2722L35.9987 21.4412L35.0832 23.5922C35.0796 23.5994 34.8486 24.1046 34.436 24.35C34.3109 23.7173 34.0041 23.0063 33.3497 22.3266C32.1142 21.0466 30.6116 20.8541 29.8249 20.8541C29.4604 20.8541 29.1993 20.895 29.1368 20.9046L27.3551 21.2559C27.4574 20.8577 27.6775 20.1612 28.0769 19.5368L29.061 18.003L26.5864 18.2857L25.7984 16.6087L24.2718 17.3967L22.8607 16L21.4532 17.3955L19.9242 16.6087L19.1374 18.2845L16.664 18.0018L17.6493 19.538C18.0499 20.1624 18.2676 20.8553 18.3699 21.2535L16.67 20.9167L16.6111 20.9083C16.3763 20.8713 16.139 20.8532 15.9013 20.8541C15.1145 20.8541 13.612 21.0466 12.3801 22.3266C11.7245 23.0051 11.4165 23.7173 11.2914 24.35C10.8812 24.1058 10.6514 23.6102 10.6514 23.6102L9.73471 21.4448L8.23456 23.2902C8.0517 23.5272 7.14825 24.7855 7.39246 26.3699C7.41892 26.5275 7.45983 26.6815 7.50434 26.833C7.18571 26.7296 6.85289 26.6764 6.51788 26.6755C5.66855 26.6755 4.8854 27.0183 4.25142 27.6643C3.37322 28.5642 2.61413 28.6664 2.62014 28.6664C2.62014 28.6664 1.81774 28.8108 0.575036 28.7867L1.41594 30.6634C1.8827 31.7028 3.04961 32.4294 4.25021 32.4294C4.34164 32.4294 4.42705 32.4162 4.51608 32.409C3.34916 33.2583 2.14375 33.2932 1.99819 33.2932L0 33.2294L0.605111 35.1302C0.910674 36.1118 1.92842 37.7347 3.87728 37.9091C3.66555 38.7993 3.19518 39.7978 2.163 40.2285L0.673682 40.842L1.48571 42.2592C1.94405 43.0231 3.02074 43.9169 4.55217 43.9169C4.88299 43.9169 5.20299 43.882 5.51216 43.8171C5.59036 44.1659 5.68901 44.5148 5.8057 44.8637C6.26043 46.2231 5.86825 47.171 5.86344 47.1819L5.12961 48.7241L6.7693 49.1572C6.78975 49.1644 7.28659 49.3016 7.90614 49.3016C8.37051 49.3044 8.83072 49.214 9.25952 49.0357C9.47245 49.417 9.7299 49.7659 10.0306 50.0775C11.0821 51.159 12.5738 51.7064 14.4601 51.7064H14.4661L15.8135 51.6883L13.0297 52.848L15.1434 53.8718C15.9121 54.2471 16.8216 54.6898 17.7503 55.0291L17.4857 55.7521L18.2135 56.0853C18.2784 56.1154 19.6811 56.7421 22.009 56.8757C22.009 56.8757 22.5708 56.9021 22.8799 56.9021C23.1903 56.9021 23.7461 56.8745 23.7461 56.8745C26.0583 56.7373 27.4489 56.1154 27.5139 56.0853L28.2441 55.7521L27.9783 55.0279C28.931 54.679 29.8754 54.217 30.6128 53.8573L32.6868 52.8468L29.9115 51.6883L31.2649 51.7064C33.1536 51.7064 34.6453 51.1578 35.6955 50.0763C35.9951 49.7659 36.2513 49.4182 36.4655 49.0357C36.8948 49.2133 37.3554 49.3032 37.82 49.3004C38.43 49.3004 38.9316 49.1656 38.9448 49.1608L40.593 48.7241L39.8748 47.2095C39.8579 47.171 39.4657 46.2231 39.9205 44.8613C40.0372 44.5148 40.1346 44.1647 40.214 43.8171C40.5232 43.882 40.8468 43.9157 41.18 43.9169C43.1313 43.9169 44.0672 42.5419 44.2477 42.2435L45.0525 40.8408L43.5632 40.2285C42.5286 39.799 42.0594 38.8005 41.8501 37.9115C43.7737 37.7431 44.8047 36.119 45.1223 35.1326L45.1211 35.1314Z" fill="#FFFFFE"/>
<path fill-rule="evenodd" clip-rule="evenodd" d="M22.8606 21.8261C21.2846 21.8273 20.1021 22.3446 19.8446 22.9545L22.8606 24.1455L25.8777 22.9545C25.6227 22.3446 24.4401 21.8273 22.8606 21.8261ZM22.8931 53.3917H22.8329C21.8777 53.3978 20.5604 53.2017 19.9276 53.0152L19.1649 55.0832C19.6678 55.2624 21.3713 55.6065 22.8642 55.6065C24.3547 55.6065 26.0594 55.2624 26.561 55.0832L25.7995 53.0164C25.1631 53.2017 23.8482 53.3978 22.8931 53.3917ZM28.6639 51.3346C28.096 51.657 26.8293 52.1406 26.0918 52.3644L26.7102 54.0726C27.6963 53.8118 28.6542 53.454 29.5697 53.0044L28.2849 52.5773L28.6639 51.3346ZM17.0609 51.3346L17.441 52.5773L16.155 53.0044C16.931 53.3954 17.8765 53.7599 19.0134 54.0714L19.6329 52.3632C18.8967 52.1394 17.6275 51.657 17.0609 51.3346ZM22.8606 19.8496C24.0503 19.8496 25.2148 20.1347 26.1123 20.6339C26.1941 20.3597 26.3084 20.0252 26.4636 19.6752L26.1243 19.7161L25.7694 19.7521L25.6191 19.4285L25.1643 18.4697L24.3391 18.9004L24.0167 19.064L23.7592 18.8114L22.8606 17.9212L21.9643 18.8114L21.7081 19.064L21.3869 18.9004L20.5568 18.4697L20.1081 19.4285L19.9553 19.7533L19.5992 19.7161L19.2624 19.6752C19.399 19.9872 19.5164 20.3074 19.6137 20.6339C20.5135 20.1347 21.678 19.8496 22.8618 19.8496H22.8606ZM41.0079 30.9377C41.1631 30.9906 41.3195 31.0147 41.4747 31.0147C42.1483 31.0147 42.798 30.578 43.0205 30.0799C43.0205 30.0799 41.7874 30.0053 40.4617 28.6568C40.0407 28.2213 39.5932 28.0902 39.2106 28.0902C38.6151 28.0902 38.1676 28.4041 38.1676 28.4041C39.77 29.2583 40.096 30.6297 41.0079 30.9377ZM4.2501 31.0135C4.40649 31.0135 4.56288 30.9906 4.71326 30.9365C5.62754 30.6285 5.95716 29.2583 7.55596 28.4054C7.55596 28.4054 7.10844 28.0902 6.51656 28.0902C6.1316 28.0902 5.68528 28.2201 5.26183 28.658C3.93732 30.0053 2.70544 30.0811 2.70544 30.0811C2.9268 30.578 3.57762 31.0147 4.2501 31.0147V31.0135Z" fill="#FFFFFE"/>
<path fill-rule="evenodd" clip-rule="evenodd" d="M40.526 40.7759C39.2869 40.1623 38.505 38.5383 38.3149 37.9536C38.1104 41.1753 36.5405 43.4104 34.7059 45.5614C33.7531 46.6778 33.4211 47.7629 33.4211 47.7629C33.4211 47.7629 33.6052 46.5334 34.428 45.5325C36.1399 43.473 37.7663 40.9082 37.8878 37.9416C37.9709 35.8724 37.4403 34.1942 36.6103 32.8108C37.0746 34.2508 37.0084 36.0156 35.4337 37.6625C35.4337 37.6625 38.57 33.8995 34.1862 30.0403C32.4322 28.5726 30.5122 27.6655 29.5246 27.0231C33.0939 28.19 34.8382 26.9052 34.8382 26.9052C33.6978 27.8953 32.2217 27.8785 31.3062 27.7353C31.5552 27.8568 31.8139 27.9843 32.0906 28.1323C35.1017 29.7708 37.806 32.4667 38.268 36.1984V36.1696C38.9669 39.8351 40.526 40.7759 40.526 40.7759ZM41.4427 36.5052C41.4691 36.5072 41.4956 36.508 41.5221 36.5076C43.2003 36.5076 43.7681 34.7067 43.7681 34.7067H43.7356C43.4277 34.7067 40.9326 34.6345 39.169 32.3885C38.0093 30.9124 37.0578 29.6144 35.1787 29.1043L34.9934 29.0706L34.9537 28.8818C34.902 28.5943 35.0981 28.3248 35.5456 28.0349C38.1381 26.3338 36.3757 24.1636 36.3757 24.1636C36.3757 24.1636 35.637 25.8983 33.9805 25.8983L33.8566 25.8959C33.6689 25.8863 33.4873 25.8803 33.3044 25.8406L32.9988 25.7804C32.9988 25.7804 33.4716 24.4932 32.3312 23.3131C31.4734 22.4204 30.428 22.2689 29.8253 22.2689C29.521 22.2689 29.3285 22.3086 29.3285 22.3086C29.9011 23.058 30.3149 24.3031 29.6533 25.0707C29.0819 25.7299 27.6864 25.7624 27.6864 26.7464C27.6864 27.1627 28.0749 27.6487 28.7727 28.0854C30.8707 29.4087 32.9531 31.1651 33.8193 33.5194C34.902 36.4547 33.6821 38.4035 31.9426 39.5211C31.9426 39.5211 32.4888 40.024 33.2791 40.089C33.4403 40.1046 33.5979 40.1118 33.7447 40.1118C35.4157 40.1118 36.2794 39.3263 36.2794 39.3263C36.2794 39.3263 36.1363 40.4114 35.2689 41.4183C34.4653 42.347 33.4127 42.8956 31.8067 42.9184C31.8067 42.9184 31.7561 43.6643 32.4671 44.3115C32.923 44.7193 33.9733 44.8528 33.9733 44.8528C33.9733 44.8528 32.0052 45.251 31.7874 48.1635C31.6695 49.7419 31.2677 50.2892 31.2677 50.2892H31.3026C35.8692 50.2892 35.7525 46.365 35.7525 46.365C35.7525 46.365 36.0701 47.5271 37.3441 47.8303C37.4981 47.8712 37.6629 47.8868 37.8193 47.8868C38.2283 47.8868 38.5856 47.7906 38.5856 47.7906C38.5856 47.7906 37.9179 46.3807 38.5796 44.4089C39.1293 42.7717 39.0403 41.559 39.0403 41.559C39.0403 41.559 39.6551 42.4914 41.1817 42.4998H41.1973C41.5579 42.5053 41.9141 42.4199 42.2329 42.2512C42.5517 42.0826 42.8228 41.8362 43.0211 41.535C39.9763 40.2682 40.277 36.1816 40.277 36.1816C40.277 36.1816 40.6716 36.4775 41.4427 36.5064V36.5052ZM11.02 45.5614C9.18538 43.4104 7.61546 41.1753 7.40854 37.9536C7.21967 38.5395 6.43892 40.1635 5.20103 40.7759C5.20103 40.7759 6.75771 39.8351 7.45666 36.1696V36.1984C7.91982 32.4667 10.6242 29.7708 13.6353 28.1335C13.912 27.9831 14.1718 27.8568 14.4184 27.7365C13.5042 27.8785 12.0269 27.8953 10.8876 26.9064C10.8876 26.9064 12.632 28.19 16.2001 27.0231C15.2136 27.6655 13.2936 28.5726 11.5409 30.0403C7.15591 33.8995 10.2921 37.6625 10.2921 37.6625C8.7162 36.0144 8.65124 34.252 9.1156 32.8108C8.28553 34.1942 7.7538 35.8724 7.84042 37.9428C7.95952 40.9082 9.58477 43.473 11.293 45.5338C12.1207 46.5322 12.3072 47.7617 12.3072 47.7617C12.3072 47.7617 11.9703 46.6778 11.02 45.5614ZM11.7538 44.8516C11.7538 44.8516 12.804 44.7193 13.2599 44.3103C13.9697 43.6643 13.9204 42.9184 13.9204 42.9184C12.3132 42.8956 11.2618 42.347 10.4545 41.4183C9.59079 40.4114 9.44643 39.3263 9.44643 39.3263C9.44643 39.3263 10.3102 40.1118 11.9788 40.1118C12.1291 40.1118 12.2855 40.1046 12.4455 40.089C12.9392 40.039 13.4063 39.8411 13.7857 39.5211C12.0437 38.4035 10.8239 36.4547 11.9054 33.5181C12.7715 31.1663 14.8527 29.4087 16.9532 28.0842C17.6497 27.6487 18.0371 27.1627 18.0371 26.7464C18.0371 25.7624 16.644 25.7299 16.0726 25.0707C15.4109 24.3031 15.826 23.058 16.3974 22.3086C16.3974 22.3086 16.2061 22.2689 15.9005 22.2689C15.299 22.2689 14.2536 22.4204 13.3947 23.3131C12.2518 24.4944 12.727 25.7816 12.727 25.7816L12.4215 25.8418C12.2398 25.8791 12.0557 25.8863 11.8681 25.8971L11.7478 25.8983C10.0876 25.8983 9.35019 24.1648 9.35019 24.1648C9.35019 24.1648 7.59019 26.3338 10.1827 28.0349C10.6278 28.3248 10.8239 28.5955 10.7721 28.8818L10.7324 29.0694L10.5436 29.1031C8.66808 29.6144 7.71651 30.9124 6.55441 32.3885C4.7908 34.6345 2.29818 34.7067 1.98901 34.7067H1.95532C1.95532 34.7067 2.52434 36.5076 4.20374 36.5076C4.2302 36.5076 4.25426 36.5076 4.28313 36.5052C5.05426 36.4775 5.45005 36.1816 5.45005 36.1816C5.45005 36.1816 5.74839 40.2682 2.70479 41.535C2.70479 41.535 3.25938 42.501 4.52975 42.501H4.54419C6.072 42.4914 6.68553 41.559 6.68553 41.559C6.68553 41.559 6.59651 42.7729 7.14388 44.4089C7.80553 46.3819 7.14147 47.7894 7.14147 47.7894C7.14147 47.7894 7.49636 47.8856 7.90658 47.8856C8.06538 47.8856 8.22778 47.8712 8.38057 47.8303C9.65334 47.5271 9.97214 46.365 9.97214 46.365C9.97214 46.365 9.85545 50.2892 14.4233 50.2892H14.4569C14.4569 50.2892 14.0563 49.7419 13.9396 48.1635C13.7231 45.2522 11.7526 44.8516 11.7526 44.8516H11.7538ZM21.8314 30.3915H23.9847V31.1314C23.7321 30.821 23.2389 30.8848 23.2389 30.8848V31.9518C23.2389 31.9518 23.2557 32.4763 23.441 32.7037H22.3751C22.5616 32.4763 22.5772 31.9518 22.5772 31.9518V30.8848C22.5772 30.8848 22.0864 30.821 21.8314 31.1314V30.3915ZM19.4855 30.5022C19.5601 30.5828 19.6335 30.6706 19.7044 30.7585C19.7213 30.7789 19.7369 30.797 19.7538 30.821C19.8199 30.9076 19.8861 31.0015 19.9499 31.0953L19.9932 31.1591C20.069 31.2745 20.1411 31.3936 20.2133 31.5176C20.8726 32.6568 21.9264 33.3377 22.8611 33.3389C23.7983 33.3377 24.8509 32.6568 25.5113 31.5176C25.5822 31.3938 25.6568 31.2722 25.7351 31.153C25.8229 31.0185 25.9168 30.888 26.0166 30.7621C26.09 30.6706 26.1658 30.5816 26.2428 30.4998C26.256 30.4878 26.2668 30.4745 26.2801 30.4637C26.6169 30.1197 27.0151 29.8574 27.5396 29.7118L27.3062 29.5759H27.2942L26.3655 29.037L25.4139 28.4896L22.8683 29.8779L22.8611 29.8718L22.8575 29.8779L20.312 28.4896L19.3592 29.037L18.4305 29.5759H18.4196L18.185 29.7118C18.7084 29.8562 19.1078 30.1161 19.4446 30.4613C19.459 30.4733 19.4687 30.4902 19.4855 30.5022Z" fill="#FFFFFE"/>
<path fill-rule="evenodd" clip-rule="evenodd" d="M22.0516 25.6878V26.3855L21.9181 26.3229C21.9121 26.3181 21.7148 26.2748 21.3743 26.0029C20.8101 25.5651 20.7993 25.1608 20.7993 25.1608L22.0504 25.6878H22.0516ZM22.6411 28.9563V24.6231L19.8886 23.6872L20.6152 27.8856L22.6423 28.9563H22.6411ZM23.6757 25.6878L24.9268 25.1608C24.9268 25.1608 24.9172 25.5651 24.3506 26.0029C24.0101 26.2736 23.814 26.3181 23.808 26.3229L23.6757 26.3843V25.6878ZM25.1109 27.8868L25.8339 23.6884L23.0826 24.6231V28.9563L25.1109 27.8856V27.8868ZM18.7482 39.0014C19.0165 39.0976 19.3413 39.1181 19.5085 39.1181C19.5145 39.0976 19.5241 39.0724 19.5325 39.0411C19.5458 38.993 19.5602 38.9425 19.571 38.8895C19.618 38.6489 19.6336 38.3782 19.6384 38.2026C19.4846 38.1111 19.3592 37.9787 19.2763 37.8201C19.174 37.6047 19.0285 37.5037 18.8156 37.5037C18.5389 37.5037 18.2417 37.6721 18.113 37.7491C18.0119 38.3482 18.4534 38.8919 18.7482 39.0002V39.0014ZM24.8378 36.7025C24.3277 37.2595 23.3256 38.2303 23.2775 38.2784L23.2173 38.3385L20.0534 38.2892C20.0508 38.551 20.0169 38.8115 19.9524 39.0652L19.9271 39.165L23.6889 39.8435C24.0799 39.5692 25.1566 38.7813 25.5752 38.4721C25.2709 38.027 25.242 37.4989 25.3106 37.1283C25.13 37.0142 24.9701 36.8702 24.8378 36.7025Z" fill="#FFFFFE"/>
<path fill-rule="evenodd" clip-rule="evenodd" d="M25.2669 32.8914C24.5379 33.6156 23.839 33.8839 23.2146 33.9464C23.1003 33.9588 22.9855 33.9652 22.8706 33.9657H22.8549C22.6252 33.9657 22.3962 33.9415 22.1716 33.8935C22.1307 34.0559 22.079 34.3964 22.2269 34.7188C22.3593 35.0111 22.6275 35.2288 23.0197 35.3744L23.1521 35.4261L23.1533 35.5681C23.1533 35.6102 23.1845 36.5317 24.1878 36.7879C24.3515 36.6195 24.5006 36.4667 24.6089 36.338C24.4044 35.8556 24.5127 35.3624 24.8098 35.1206C24.7978 35.1723 24.6654 36.3813 25.6339 36.8312L25.7939 36.907L25.7457 37.0767C25.7301 37.1284 25.4077 38.2989 26.5806 38.7344L26.7875 38.8138L26.6949 39.0147C26.6745 39.0592 26.2149 40.1215 27.2976 40.7254H29.6447V38.8571C28.8098 38.7548 28.4573 38.0824 28.3659 37.606C27.9773 37.5398 27.6778 37.3726 27.472 37.0995C26.9788 36.4499 27.4023 35.8544 27.4083 35.8219C27.4071 35.8267 27.4083 36.4595 27.7981 36.8517C27.9917 37.0394 28.2203 37.1861 28.568 37.2186L28.7376 37.2342L28.752 37.4087C28.7556 37.446 28.8483 38.3037 29.6447 38.4385L29.6435 34.6249C29.6435 34.0331 29.8155 33.4388 30.0224 32.8902H25.2669V32.8914ZM18.9476 34.6394L18.885 37.067L19.1617 37.1103L19.8354 34.7801L19.4925 34.0631L18.9488 34.6394H18.9476ZM20.408 43.6306C20.3895 43.63 20.3713 43.6257 20.3546 43.6178C20.3378 43.61 20.3228 43.5988 20.3105 43.5849C20.2983 43.571 20.2889 43.5548 20.2832 43.5373C20.2774 43.5197 20.2752 43.5011 20.2769 43.4826C20.2779 43.4644 20.2826 43.4466 20.2907 43.4302C20.2987 43.4138 20.31 43.3991 20.3238 43.3872C20.3376 43.3752 20.3536 43.366 20.371 43.3603C20.3883 43.3546 20.4066 43.3525 20.4248 43.3539C20.5042 43.3575 20.5596 43.4261 20.5572 43.5007C20.5544 43.5376 20.5372 43.572 20.5093 43.5963C20.4813 43.6206 20.445 43.6329 20.408 43.6306ZM26.3773 45.7804C26.3978 45.7804 26.4218 45.7828 26.4435 45.7888C26.8645 45.9091 26.9692 47.4225 27.7042 47.5572C27.7764 47.5729 27.8438 47.5765 27.9015 47.5765C28.1144 47.5765 28.2408 47.4862 28.3779 47.3238C28.3779 47.3238 28.0074 46.7428 27.7307 46.3494C27.3638 45.8345 27.0787 45.2126 26.3942 45.2126C26.3773 45.2126 26.3581 45.2126 26.34 45.215C26.2097 45.2202 26.0836 45.2628 25.9767 45.3377C25.7482 45.1865 25.4807 45.105 25.2068 45.1031C24.7797 45.1031 24.4453 45.3004 24.2781 45.3004H24.2721L22.7442 45.1488C22.5048 45.1247 22.316 44.8841 22.2474 44.7903L22.2209 44.7494C22.2209 44.7073 22.2209 44.6652 22.2185 44.6279C22.1668 43.3756 21.1996 42.8402 20.8543 42.8306C20.8543 42.8306 20.8952 42.5924 20.8026 42.5022L20.4657 42.9112L19.359 42.3554L20.1482 43.2793L19.4805 44.0312C19.3963 44.1166 19.4071 44.2321 19.442 44.2814L19.7307 44.5365L20.0964 44.3139C20.1145 44.3007 20.1482 44.2959 20.1891 44.2959C20.2901 44.2959 20.4417 44.3223 20.5776 44.3223C20.728 44.3223 20.8567 44.2911 20.8724 44.1503C20.8267 44.6147 20.396 45.4219 20.6787 46.0559L20.888 46.5347L19.537 46.3398L18.9043 47.4093C18.7094 47.7653 18.6781 48.1503 18.8658 48.3596L19.1027 48.6568C19.1027 48.6568 19.4348 48.3043 19.5082 48.0721L19.4011 47.9542C19.3109 47.8544 19.3157 47.7653 19.371 47.6583L19.768 46.999L21.362 47.3756L21.4462 47.2312C21.5545 47.0508 21.7109 46.9978 21.8817 46.9978C21.9527 46.9978 22.0248 47.0062 22.0994 47.0183C22.3954 47.0772 22.8826 47.1554 23.3698 47.1554C23.9051 47.1554 24.4357 47.0592 24.7184 46.7428C25.2958 47.6005 26.4675 47.7365 26.3749 48.1732L26.0669 49.6432C26.2714 49.6336 26.4675 49.6204 26.654 49.5951L26.9475 48.0661C26.9713 47.9363 26.9922 47.8059 27.0101 47.6751C26.897 47.5596 26.6239 47.3178 26.4687 47.0231C26.263 46.6249 26.3749 46.4168 26.1824 45.8995C26.1824 45.8995 26.2426 45.7792 26.3773 45.7792V45.7804Z" fill="#FFFFFE"/>
<path fill-rule="evenodd" clip-rule="evenodd" d="M18.2284 47.1699C18.2284 47.1699 18.7577 46.9534 18.8058 46.797L18.7336 46.6213C18.6843 46.5059 18.6903 46.3807 18.7878 46.3134L19.358 45.9176L20.312 46.1016C20.312 46.1016 20.1387 45.8851 20.1556 45.5964L19.2461 45.4039L18.3872 45.9272C18.2373 46.0383 18.129 46.1965 18.0795 46.3764C18.03 46.5562 18.0422 46.7475 18.1141 46.9197L18.2284 47.1711V47.1699ZM24.9736 49.6625C25.1432 49.6553 25.3333 49.6529 25.539 49.6529C25.539 49.6529 26.0299 48.2153 26.0575 48.1696C25.693 47.9996 25.3372 47.8112 24.9917 47.6054C25.1372 47.8243 25.4909 48.0734 25.4211 48.2658L24.9736 49.6625Z" fill="#FFFFFE"/>
<path fill-rule="evenodd" clip-rule="evenodd" d="M29.644 41.1368H16.0802V46.2484C16.0802 48.3392 17.5899 49.6469 19.8191 49.6469C21.6801 49.6469 22.171 49.719 22.8627 50.4084C23.3403 49.9308 23.7349 49.7539 24.5469 49.6866L24.5649 49.6084L24.992 48.2839C24.9679 48.2538 24.2702 47.4586 24.2702 47.4586C23.9935 47.5512 23.7601 47.5669 23.368 47.5669C22.9674 47.5669 22.5138 47.5187 22.0218 47.4273C21.9757 47.4164 21.9284 47.4107 21.881 47.4105C21.8209 47.4105 21.8173 47.4153 21.8004 47.4454L21.7162 47.5861L21.5598 47.8436L21.2675 47.775L19.9659 47.4682L19.7866 47.7629L19.8143 47.7954L19.9719 47.9699L19.9021 48.1984C19.8059 48.4956 19.4955 48.8432 19.4004 48.9395L19.0756 49.2884L18.7785 48.9142L18.5559 48.6339C18.3214 48.3717 18.2672 47.9699 18.3995 47.5488C18.3957 47.5516 18.3911 47.5533 18.3863 47.5536L18.0194 47.7064L17.8546 47.3455L17.7379 47.0917C17.6259 46.832 17.6057 46.5418 17.6807 46.2691C17.7557 45.9964 17.9214 45.7574 18.1505 45.5915L19.1971 44.9984L20.1956 45.1945C20.2197 45.0983 20.2558 44.7566 20.2834 44.6688C20.2642 44.6664 20.2462 44.6628 20.2269 44.6628L19.6519 44.8769L19.0985 44.4944C19.0985 44.4944 18.8819 44.2851 19.078 44.0757L19.6134 43.2613L18.254 41.553L20.3436 42.412L20.4831 42.24L20.7647 41.9007L21.0847 42.2063C21.1688 42.2885 21.2273 42.3934 21.2531 42.5082C21.8281 42.7332 22.8603 43.396 22.9517 44.4739L22.6293 44.6027V44.6111C22.7027 44.6989 22.764 44.735 22.7833 44.7386L24.275 44.8854C24.3135 44.8781 24.3592 44.8613 24.4122 44.8469C24.5986 44.7831 24.8765 44.6905 25.2061 44.6905C25.4756 44.6905 25.7355 44.753 25.9845 44.8709C26.0925 44.8305 26.2061 44.807 26.3213 44.8012L26.3935 44.7987C27.1911 44.7987 27.5881 45.3966 27.9069 45.8742C27.9598 45.9572 28.0127 46.0342 28.0681 46.1112C28.3472 46.5058 28.7117 47.0821 28.7261 47.1073L28.8909 47.3636L28.6888 47.5993C28.5349 47.7798 28.3003 47.9903 27.9009 47.9903C27.8104 47.9896 27.7202 47.9803 27.6314 47.9626C27.5496 47.9469 27.4697 47.9223 27.3932 47.8893C27.381 47.9742 27.3669 48.0588 27.3511 48.1431L27.09 49.5109C28.6539 49.126 29.6476 47.9422 29.6476 46.2484L29.644 41.1368ZM16.0802 40.7254H26.6305C26.1036 40.1792 26.112 39.4899 26.2455 39.0412C26.1032 38.9728 25.9709 38.8854 25.8522 38.7813C25.4395 39.0857 24.1812 40.0036 23.8528 40.2346L23.7818 40.2827L19.641 39.532H19.5568C19.4582 39.532 19.3126 39.5284 19.1538 39.5079C19.1368 39.584 19.0982 39.6535 19.0425 39.708C18.9868 39.7625 18.9166 39.7997 18.8402 39.8151C18.7638 39.8305 18.6846 39.8234 18.6122 39.7948C18.5397 39.7661 18.4772 39.717 18.432 39.6535C18.4003 39.6101 18.3776 39.5609 18.3652 39.5086C18.3528 39.4563 18.351 39.4021 18.3598 39.3491L18.3755 39.2589C17.9496 38.9582 17.5538 38.2845 17.7295 37.5747L17.7463 37.5001L17.8065 37.4568C17.8672 37.4154 17.9298 37.3768 17.9941 37.3413L17.6934 37.2932C17.64 37.284 17.5922 37.2544 17.5603 37.2106C17.5284 37.1668 17.5149 37.1123 17.5226 37.0586C17.5265 37.0317 17.5358 37.0059 17.5498 36.9826C17.5639 36.9594 17.5824 36.9392 17.6044 36.9231C17.6263 36.9071 17.6512 36.8956 17.6777 36.8894C17.7041 36.8831 17.7315 36.8821 17.7583 36.8866L18.4741 36.9997L18.5403 34.4722L19.6062 33.3413L20.2726 34.7452L19.5701 37.1777L20.2028 37.2776C20.2569 37.2864 20.3052 37.3163 20.3372 37.3608C20.3692 37.4052 20.3824 37.4605 20.3737 37.5146C20.3659 37.5625 20.3413 37.606 20.3042 37.6374C20.2672 37.6687 20.2201 37.6857 20.1716 37.6854L20.1391 37.6842L19.623 37.6C19.6302 37.6168 19.6398 37.6252 19.6471 37.6421C19.7045 37.7417 19.791 37.8214 19.8949 37.8707L23.0504 37.9224C23.1839 37.7913 23.5147 37.4664 23.8564 37.1224C23.559 37.0132 23.2979 36.8234 23.1024 36.5741C22.9069 36.3249 22.7848 36.0261 22.7496 35.7113C22.3165 35.526 22.0158 35.2493 21.8498 34.8884C21.6477 34.4409 21.7198 33.9934 21.774 33.7756C21.3529 33.6228 20.9102 33.3413 20.4579 32.8914H15.7036C15.9081 33.44 16.0802 34.0343 16.0802 34.6249V40.7242V40.7254Z" fill="#FFE52B"/>
<path fill-rule="evenodd" clip-rule="evenodd" d="M20.4249 43.354C20.4066 43.3525 20.3882 43.3547 20.3707 43.3605C20.3533 43.3663 20.3372 43.3755 20.3234 43.3876C20.3096 43.3997 20.2984 43.4145 20.2904 43.431C20.2824 43.4476 20.2778 43.4655 20.2769 43.4839C20.2755 43.5022 20.2777 43.5207 20.2836 43.5381C20.2895 43.5556 20.2988 43.5716 20.3111 43.5854C20.3233 43.5991 20.3382 43.6102 20.3549 43.618C20.3716 43.6257 20.3897 43.6301 20.4081 43.6307C20.4448 43.633 20.481 43.6208 20.5089 43.5967C20.5368 43.5727 20.5542 43.5386 20.5572 43.5019C20.5592 43.4648 20.5464 43.4284 20.5216 43.4006C20.4968 43.3729 20.462 43.3561 20.4249 43.354ZM26.7118 54.0727L26.0922 52.3645C26.8297 52.1395 28.0965 51.6559 28.6655 51.3347L28.2865 52.5774L29.5701 53.0045C28.793 53.3942 27.8522 53.7587 26.7118 54.0715V54.0727ZM22.8646 55.6066C21.3717 55.6066 19.6682 55.2625 19.1654 55.0832L19.9281 53.0165C20.5608 53.2017 21.8769 53.3978 22.8333 53.3918H22.8935C23.8486 53.3978 25.1635 53.2005 25.7999 53.0165L26.5614 55.0832C26.0586 55.2637 24.3551 55.6066 22.8646 55.6066ZM16.1566 53.0045L17.4414 52.5774L17.0613 51.3347C17.6279 51.6559 18.8983 52.1407 19.6333 52.3645L19.0138 54.0727C17.8769 53.7599 16.9326 53.3942 16.1566 53.0045ZM29.6279 52.6255L28.8459 52.3248L29.0625 51.5163L29.2995 50.6345C29.2995 50.6345 27.916 51.3876 25.9635 51.9518C25.4101 52.1106 24.9915 52.184 24.9915 52.184V52.7843C24.9915 52.7843 23.9473 52.9648 22.8935 52.9648H22.8333C21.7771 52.9648 20.7353 52.7843 20.7353 52.7843V52.1828C20.7353 52.1828 20.3154 52.1106 19.762 51.9518C17.812 51.3864 16.4285 50.6345 16.4285 50.6345L16.6619 51.5163L16.8833 52.3248L16.0989 52.6255L15.2291 52.9503C16.2252 53.4327 17.6063 54.1341 18.8694 54.4805L18.5723 55.2962C18.5723 55.2962 20.1747 56.0276 22.8441 56.0348V56.036H22.8802V56.0348C25.5533 56.0276 27.1557 55.2962 27.1557 55.2962L26.855 54.4805C28.1193 54.1341 29.5028 53.4339 30.494 52.9503L29.6279 52.6255ZM19.6008 19.7149L19.9557 19.7534L20.1085 19.4286L20.556 18.4698L21.3861 18.9005L21.7085 19.0653L22.861 17.9201L23.7596 18.8103L24.0171 19.0653L24.3395 18.9005L25.1647 18.4698L25.6195 19.4286L25.7698 19.7534L26.1247 19.7149L26.464 19.6752C26.3266 19.9876 26.2089 20.3082 26.1115 20.6352C25.2153 20.1336 24.0508 19.8497 22.8622 19.8497C21.6784 19.8497 20.5139 20.1336 19.6141 20.6352C19.517 20.3083 19.3997 19.9876 19.2628 19.6752L19.5996 19.7149H19.6008ZM22.861 20.3489C24.4526 20.3489 25.7241 20.8782 26.4279 21.44C26.4279 21.44 26.6372 20.1805 27.3494 19.0701L26.0682 19.2145L25.3981 17.7889L24.1109 18.4542L22.861 17.2175L21.6159 18.4542L20.3263 17.7889L19.6574 19.2157L18.3762 19.0689C19.0896 20.1805 19.2977 21.4388 19.2977 21.4388C20.0051 20.877 21.273 20.3489 22.861 20.3489ZM43.0209 41.535C43.0209 41.535 42.4675 42.501 41.1972 42.501H41.1815C39.6561 42.4914 39.0402 41.5591 39.0402 41.5591C39.0402 41.5591 39.1292 42.7717 38.5806 44.409C37.919 46.3819 38.5854 47.7894 38.5854 47.7894C38.5854 47.7894 38.2294 47.8869 37.8191 47.8869C37.6627 47.8869 37.4991 47.8712 37.3439 47.8303C36.07 47.5284 35.7524 46.3663 35.7524 46.3663C35.7524 46.3663 35.8703 50.2893 31.3025 50.2893H31.2664C31.2664 50.2893 31.6694 49.7419 31.7885 48.1636C32.005 45.2523 33.9731 44.8517 33.9731 44.8517C33.9731 44.8517 32.9229 44.7194 32.467 44.3116C31.756 43.6655 31.8053 42.9185 31.8053 42.9185C33.4125 42.8956 34.4664 42.3482 35.2688 41.4183C35.7858 40.8234 36.1347 40.1012 36.2793 39.3263C36.2793 39.3263 35.4155 40.1119 33.7446 40.1119C33.5978 40.1119 33.4414 40.1046 33.2802 40.089C32.4886 40.0252 31.9425 39.5212 31.9425 39.5212C33.682 38.4036 34.9018 36.4535 33.8203 33.5182C32.9542 31.1663 30.8706 29.4087 28.7737 28.0854C28.076 27.6487 27.6862 27.1627 27.6862 26.7453C27.6862 25.7624 29.0817 25.7312 29.6543 25.0707C30.316 24.3032 29.901 23.0581 29.3283 22.3086C29.3283 22.3086 29.5208 22.2689 29.8252 22.2689C30.4291 22.2689 31.4733 22.4205 32.3322 23.3131C33.4715 24.4945 32.9987 25.7817 32.9987 25.7817L33.3043 25.8418C33.4871 25.8791 33.6688 25.8875 33.8576 25.8972L33.9803 25.8984C35.6369 25.8984 36.3767 24.1636 36.3767 24.1636C36.3767 24.1636 38.1379 26.3339 35.5455 28.0349C35.0991 28.3248 34.9018 28.5955 34.9536 28.8818L34.9945 29.0707L35.1785 29.1032C37.0576 29.6145 38.0092 30.9137 39.1701 32.3886C40.9337 34.6346 43.4287 34.7068 43.7355 34.7068H43.7692C43.7692 34.7068 43.2002 36.5077 41.522 36.5077C41.4943 36.5077 41.4703 36.5077 41.4426 36.5053C40.6727 36.4776 40.2757 36.1816 40.2757 36.1816C40.2757 36.1816 39.9761 40.2683 43.0209 41.535ZM41.522 37.0586C43.5791 37.0586 44.2672 34.9618 44.2961 34.8728L44.5247 34.1329L43.7548 34.157H43.7523C43.4793 34.157 41.2104 34.0968 39.602 32.0481L39.4492 31.8581C38.3978 30.5191 37.4005 29.2451 35.6176 28.6641C35.6889 28.6017 35.7649 28.545 35.845 28.4945C36.7906 27.8713 37.3415 27.1146 37.4787 26.2352C37.682 24.9131 36.8387 23.8593 36.8026 23.816L36.23 23.1062L35.8715 23.9483C35.8474 24 35.2459 25.3474 33.9803 25.3474H33.8865C33.8026 25.3445 33.7188 25.3397 33.6351 25.333C33.6796 24.7315 33.5701 23.8027 32.728 22.9294C31.7163 21.8791 30.4748 21.7215 29.8252 21.7215C29.4787 21.7215 29.2477 21.7649 29.2225 21.7673L28.3575 21.9393L28.8904 22.643C29.3091 23.1868 29.6892 24.1889 29.2393 24.7122C29.0949 24.8806 28.799 25.0142 28.5163 25.1501C27.9341 25.4184 27.1377 25.7937 27.1377 26.7453C27.1377 27.3612 27.6153 28.0072 28.4814 28.5546C31.0414 30.1678 32.6222 31.852 33.3043 33.7107C34.3605 36.569 32.9831 38.2003 31.6441 39.0592L31.045 39.4454L31.5707 39.929C31.6417 39.9916 32.2829 40.5582 33.2321 40.64C33.4125 40.652 33.5846 40.6616 33.7458 40.6616C34.3533 40.6616 34.8718 40.5654 35.2928 40.4379C35.167 40.6575 35.0203 40.8646 34.8549 41.0562C34.091 41.944 33.1503 42.3482 31.7969 42.3699L31.294 42.3771L31.2555 42.8824C31.2507 42.9846 31.2134 43.9218 32.0976 44.7182C32.2336 44.8409 32.3972 44.9431 32.5692 45.0249C31.9677 45.5663 31.359 46.5094 31.2411 48.1239C31.1413 49.4712 30.8201 49.9705 30.8164 49.9765L30.2607 50.8258L31.2652 50.839C32.9241 50.839 34.1945 50.3819 35.0739 49.4724C35.5294 48.9947 35.8693 48.419 36.0676 47.7894C36.5561 48.206 37.1771 48.4346 37.8191 48.4342C38.2883 48.4342 38.6805 48.3344 38.7238 48.3248L39.365 48.1539L39.0823 47.5548C39.0606 47.5067 38.5265 46.3037 39.1015 44.587C39.3116 43.9619 39.4575 43.3169 39.537 42.6622C39.9412 42.874 40.4814 43.0472 41.1803 43.0496C42.7683 43.0496 43.4672 41.8622 43.4985 41.8129L43.8113 41.2667L43.2314 41.0286C41.3403 40.2418 40.9217 38.1293 40.8375 36.9865C41.0095 37.0189 41.2044 37.049 41.4245 37.055L41.522 37.0586Z" fill="#1A1919"/>
<path fill-rule="evenodd" clip-rule="evenodd" d="M39.2113 28.0902C39.5939 28.0902 40.0414 28.2213 40.4625 28.658C41.7882 30.0054 43.0212 30.0811 43.0212 30.0811C42.7975 30.578 42.1479 31.0147 41.4754 31.0147C41.3202 31.0147 41.1626 30.9906 41.0098 30.9365C40.0967 30.6285 39.7707 29.2583 38.1695 28.4054C38.1695 28.4054 38.6146 28.0902 39.2113 28.0902ZM37.9085 28.8914C38.6748 29.3004 39.1223 29.8502 39.5145 30.3362C39.8995 30.8114 40.264 31.2685 40.8378 31.4586C41.0399 31.5284 41.2552 31.562 41.4754 31.562C42.3331 31.562 43.1957 31.0351 43.5229 30.3061L43.8513 29.5771L43.0561 29.529C43.0188 29.529 41.9951 29.4339 40.857 28.2694C40.3879 27.7906 39.8213 27.5404 39.2113 27.5404C38.4655 27.5404 37.9121 27.9133 37.8519 27.9518L37.1205 28.4679L37.9085 28.8914ZM38.2682 36.1707V36.1984C37.8062 32.4667 35.1019 29.772 32.0908 28.1335C31.8141 27.9843 31.5554 27.8568 31.3064 27.7365C32.2219 27.8784 33.698 27.8953 34.8384 26.9064C34.8384 26.9064 33.0941 28.19 29.5247 27.0231C30.5112 27.6655 32.4324 28.5726 34.1864 30.0402C38.5689 33.8995 35.4339 37.6625 35.4339 37.6625C37.0098 36.0156 37.0748 34.252 36.6104 32.8108C37.4405 34.1942 37.9698 35.8724 37.888 37.9428C37.7677 40.9082 36.1401 43.473 34.4282 45.5337C33.6053 46.5322 33.4225 47.7617 33.4225 47.7617C33.4225 47.7617 33.7545 46.6778 34.7061 45.5626C36.5407 43.4092 38.1106 41.1752 38.3151 37.9536C38.5052 38.5395 39.2871 40.1635 40.5262 40.7758C40.5262 40.7758 38.9683 39.8351 38.2682 36.1707ZM14.4246 50.2892C9.85684 50.2892 9.97353 46.3662 9.97353 46.3662C9.97353 46.3662 9.65353 47.5283 8.38195 47.8303C8.22663 47.8693 8.06693 47.8883 7.90677 47.8868C7.49775 47.8868 7.14166 47.7906 7.14166 47.7906C7.14166 47.7906 7.80692 46.3806 7.14406 44.4089C6.5979 42.7728 6.68692 41.559 6.68692 41.559C6.68692 41.559 6.07219 42.4913 4.54557 42.5009H4.52994C3.26077 42.5009 2.70618 41.5349 2.70618 41.5349C5.74978 40.2682 5.45144 36.1816 5.45144 36.1816C5.45144 36.1816 5.05444 36.4775 4.28452 36.5064H4.20392C2.52453 36.5064 1.95551 34.7067 1.95551 34.7067H1.99039C2.30077 34.7067 4.79219 34.6345 6.55459 32.3885C7.71549 30.9124 8.66827 29.6144 10.5438 29.1043L10.7326 29.0706L10.7723 28.8817C10.8253 28.5954 10.628 28.3248 10.1828 28.0348C7.59038 26.3338 9.35037 24.1648 9.35037 24.1648C9.35037 24.1648 10.0866 25.8983 11.748 25.8983L11.8683 25.8971C12.0559 25.8875 12.24 25.879 12.4216 25.8406L12.7272 25.7816C12.7272 25.7816 12.2532 24.4944 13.3961 23.313C14.255 22.4204 15.298 22.2688 15.9007 22.2688C16.2075 22.2688 16.3964 22.3085 16.3964 22.3085C15.8261 23.058 15.4123 24.3031 16.0716 25.0706C16.6442 25.7311 18.0385 25.7624 18.0385 26.7452C18.0385 27.1627 17.6499 27.6487 16.9534 28.0854C14.8541 29.4087 12.7717 31.165 11.9056 33.5193C10.8253 36.4547 12.0451 38.4035 13.7858 39.5223C13.7858 39.5223 13.2385 40.0252 12.4469 40.0889C12.2918 40.1039 12.136 40.1115 11.9801 40.1118C10.3104 40.1118 9.44661 39.3274 9.44661 39.3274C9.44661 39.3274 9.59097 40.4113 10.4547 41.4194C11.2607 42.3482 12.3134 42.8955 13.9194 42.9184C13.9194 42.9184 13.9711 43.6643 13.2601 44.3115C12.8042 44.7205 11.754 44.8528 11.754 44.8528C11.754 44.8528 13.7233 45.2522 13.9398 48.1635C14.0577 49.7418 14.4571 50.2892 14.4571 50.2892H14.4246ZM14.9095 49.9764C14.9082 49.9704 14.5895 49.4712 14.4872 48.1238C14.3669 46.5094 13.7582 45.5662 13.1555 45.0249C13.3299 44.943 13.4923 44.8408 13.627 44.7181C14.5113 43.9217 14.474 42.9858 14.4679 42.8823L14.4343 42.377L13.9278 42.3698C12.578 42.3482 11.6361 41.944 10.8722 41.0561C10.7075 40.8639 10.5609 40.6569 10.4343 40.4378C10.8553 40.5665 11.3702 40.6616 11.9801 40.6616C12.1425 40.6616 12.3134 40.6519 12.4926 40.6399C13.1066 40.5786 13.6872 40.3309 14.1564 39.9301L14.6821 39.4453L14.083 39.0604C12.7404 38.2002 11.3678 36.5701 12.4228 33.7106C13.1049 31.852 14.6821 30.169 17.2469 28.5545C18.1131 28.0072 18.587 27.3611 18.587 26.7452C18.587 25.7936 17.7931 25.4183 17.2108 25.15C16.9269 25.0141 16.6309 24.8794 16.4878 24.7121C16.0367 24.1888 16.4156 23.1867 16.8355 22.643L17.372 21.9392L16.5022 21.7672C16.4782 21.7636 16.2496 21.7215 15.9007 21.7215C15.2523 21.7215 14.012 21.8791 13.0015 22.9293C12.1582 23.8027 12.0475 24.7326 12.0908 25.3329C12.0075 25.3396 11.9241 25.3444 11.8406 25.3473H11.748C10.4776 25.3473 9.87849 24 9.85563 23.9482L9.49834 23.1061L8.9209 23.8159C8.88842 23.8592 8.04271 24.913 8.24962 26.2351C8.38556 27.1133 8.93654 27.8712 9.8821 28.4944C9.98556 28.5605 10.0565 28.6171 10.1083 28.664C8.32301 29.2451 7.32812 30.519 6.2767 31.858L6.12512 32.048C4.5179 34.0968 2.24302 34.1581 1.97115 34.1581L1.19641 34.1341L1.4322 34.8727C1.45987 34.9617 2.14558 37.0586 4.20392 37.0586L4.30257 37.055C4.52031 37.0489 4.7164 37.0189 4.88963 36.9852C4.80542 38.128 4.38437 40.2417 2.49325 41.0273L1.91581 41.2679L2.22859 41.8128C2.47926 42.1987 2.82378 42.5145 3.22988 42.7308C3.63597 42.9471 4.09034 43.0568 4.55039 43.0495C5.1196 43.0552 5.68175 42.9231 6.18888 42.6646C6.25023 43.1819 6.37775 43.8447 6.62557 44.587C7.2006 46.3024 6.66527 47.5066 6.64482 47.5548L6.36091 48.1539L7.00211 48.3235C7.04542 48.3355 7.44 48.4342 7.90677 48.4342C8.54899 48.4358 9.17049 48.207 9.65834 47.7894C9.85665 48.4186 10.1961 48.9943 10.6508 49.4724C11.5338 50.3806 12.803 50.839 14.4607 50.839L15.4652 50.8257L14.9095 49.9764Z" fill="#1A1919"/>
<path fill-rule="evenodd" clip-rule="evenodd" d="M5.26137 28.658C5.68483 28.2213 6.13114 28.089 6.5161 28.089C7.10798 28.089 7.5567 28.4054 7.5567 28.4054C5.95671 29.2595 5.62708 30.6285 4.7128 30.9377C4.5639 30.9893 4.40723 31.015 4.24964 31.0135C3.57716 31.0135 2.92634 30.578 2.70499 30.0812C2.70499 30.0812 3.93686 30.0054 5.26137 28.658ZM4.24964 31.5621C4.46979 31.5621 4.68513 31.5284 4.88964 31.4586C5.46227 31.2685 5.82798 30.8126 6.21295 30.3362C6.60633 29.8514 7.04903 29.3016 7.81655 28.8926L8.60572 28.4679L7.87189 27.9507C7.81174 27.9134 7.26196 27.5416 6.5161 27.5416C5.90498 27.5416 5.33716 27.7907 4.86919 28.2695C3.72995 29.4352 2.70859 29.529 2.6713 29.5302L1.87732 29.5771L2.20213 30.3073C2.53175 31.0352 3.3931 31.5621 4.24964 31.5621ZM7.8382 37.9428C7.75399 35.8724 8.28332 34.1942 9.11339 32.8108C8.65143 34.252 8.71399 36.0156 10.2923 37.6637C10.2923 37.6637 7.1549 33.8983 11.5398 30.0415C13.2938 28.5726 15.2126 27.6655 16.1991 27.0231C12.631 28.1901 10.8878 26.9052 10.8878 26.9052C12.0271 27.8953 13.5031 27.8797 14.4186 27.7353C14.1708 27.8568 13.911 27.9831 13.6343 28.1335C10.6232 29.7708 7.92001 32.4667 7.45565 36.1985V36.1708C6.7567 39.8351 5.20002 40.7759 5.20002 40.7759C6.43911 40.1623 7.21866 38.5383 7.40873 37.9536C7.61565 41.1753 9.18437 43.4105 11.0177 45.5626C11.9705 46.6778 12.305 47.7617 12.305 47.7617C12.305 47.7617 12.1197 46.5335 11.2932 45.5338C9.58496 43.473 7.9585 40.9082 7.8382 37.9428ZM21.8303 30.3916V31.1326C22.0854 30.821 22.5762 30.8848 22.5762 30.8848V31.9518C22.5762 31.9518 22.5606 32.4764 22.3741 32.7037H23.44C23.2547 32.4764 23.2367 31.9518 23.2367 31.9518V30.8848C23.2367 30.8848 23.7299 30.821 23.9825 31.1326V30.3916H21.8291H21.8303ZM21.3732 26.003C21.7136 26.2737 21.9109 26.3194 21.917 26.323L22.0493 26.3843V25.6878L20.7982 25.1609C20.7982 25.1609 20.809 25.5651 21.3732 26.003ZM24.3494 26.003C24.9148 25.5651 24.9269 25.1609 24.9269 25.1609L23.6745 25.6878V26.3855L23.8069 26.323C23.8129 26.3194 24.009 26.2737 24.3494 26.003Z" fill="#1A1919"/>
<path fill-rule="evenodd" clip-rule="evenodd" d="M22.8624 24.1467L19.8465 22.9534C20.1027 22.3446 21.2853 21.8273 22.8624 21.8261C24.4408 21.8273 25.6233 22.3446 25.8795 22.9534L22.8624 24.1467ZM25.1108 27.8869L23.0838 28.9575V24.6219L25.835 23.686L25.1108 27.8845V27.8869ZM26.3668 29.0369L27.2931 29.5759H27.3063L27.5397 29.7118C27.0164 29.8562 26.6158 30.1196 26.2801 30.4637L26.2441 30.4998C26.1649 30.5842 26.0891 30.6717 26.0167 30.7621L25.9746 30.8174C25.9024 30.91 25.8338 31.0051 25.7701 31.1037L25.7352 31.153C25.6572 31.2721 25.5829 31.3937 25.5126 31.5175C24.851 32.6568 23.7983 33.3377 22.8624 33.3401C21.9265 33.3377 20.8726 32.6568 20.2134 31.5175C20.1433 31.396 20.0699 31.2765 19.9932 31.159L19.9499 31.0953C19.8871 31.0024 19.8221 30.9109 19.7551 30.821C19.7382 30.7969 19.7226 30.7789 19.7057 30.7584C19.6351 30.6707 19.5617 30.5852 19.4856 30.5022C19.4699 30.4902 19.4591 30.4745 19.4447 30.4613C19.101 30.1014 18.6654 29.8422 18.1851 29.7118L18.4209 29.5759H18.4305L19.3605 29.0369L20.312 28.4896L22.8576 29.8778L22.8624 29.873L22.8696 29.8778L25.414 28.4896L26.3668 29.0369ZM30.0239 32.8914C29.8158 33.4399 29.6437 34.0342 29.6437 34.6249L29.6461 38.4384C28.851 38.3061 28.7559 37.4471 28.7535 37.4099L28.7391 37.2354L28.5671 37.2198C28.2753 37.1941 28.0027 37.0637 27.7995 36.8529C27.4086 36.4619 27.4086 35.8291 27.4086 35.8231C27.4038 35.8556 26.9803 36.4487 27.4711 37.0983C27.678 37.3726 27.9788 37.5422 28.3662 37.6083C28.4576 38.0835 28.8113 38.756 29.6461 38.8595V40.7241H27.2991C26.2164 40.1214 26.6747 39.0604 26.6964 39.0147L26.7878 38.8126L26.5809 38.7344C25.408 38.2989 25.7316 37.1271 25.7472 37.0766L25.7953 36.9058L25.6341 36.8312C24.6669 36.3813 24.798 35.1711 24.8113 35.1205C24.5129 35.3623 24.4059 35.8544 24.6104 36.3392C24.4997 36.4667 24.3505 36.6195 24.1881 36.7879C23.9055 36.7262 23.6511 36.5732 23.4641 36.3525C23.2772 36.1318 23.168 35.8557 23.1535 35.5668L23.1523 35.4249L23.02 35.3744C22.629 35.23 22.3608 35.0111 22.2272 34.7187C22.1184 34.4568 22.099 34.1663 22.1719 33.8923C22.3967 33.9389 22.6256 33.9631 22.8552 33.9644H22.8708C22.9875 33.9644 23.1018 33.9572 23.2149 33.9464C23.8405 33.8838 24.5382 33.6156 25.2672 32.8914H30.0239ZM27.091 49.5109L27.3532 48.1431L27.3953 47.8904C27.5572 47.9538 27.7292 47.9876 27.903 47.9903C28.3024 47.9903 28.5358 47.7785 28.691 47.5993L28.8907 47.3647L28.7271 47.1073C28.7126 47.082 28.3481 46.5058 28.069 46.1112C28.0136 46.0332 27.9602 45.9538 27.909 45.873C27.5902 45.3966 27.192 44.7987 26.3932 44.7987L26.3222 44.8011C26.2072 44.8073 26.0937 44.8304 25.9854 44.8697C25.7423 44.7535 25.4765 44.6926 25.2071 44.6916C24.936 44.6982 24.668 44.7502 24.4143 44.8456C24.3614 44.8613 24.3132 44.8781 24.2759 44.8853L22.7842 44.7386C22.7235 44.7088 22.6707 44.6651 22.6302 44.611V44.6026L22.9526 44.4739C22.8624 43.396 21.829 42.7331 21.254 42.5082C21.2285 42.3929 21.17 42.2876 21.0856 42.205L20.7656 41.9007L20.4841 42.2387L20.3457 42.4119L18.2549 41.5518L19.6143 43.2613L19.079 44.0757C18.8817 44.2838 19.0994 44.4943 19.0994 44.4943L19.6528 44.8769L20.2278 44.6616C20.2471 44.6616 20.2639 44.6664 20.2844 44.6688C20.2567 44.7566 20.2206 45.0995 20.1966 45.1945L19.1993 44.9984L18.1526 45.5915C17.6125 45.9885 17.5391 46.6429 17.74 47.0916L17.8555 47.3467L18.0203 47.7064L18.3872 47.5548C18.3933 47.5524 18.3981 47.5512 18.4017 47.5476C18.2693 47.9698 18.3235 48.3704 18.5581 48.6339L18.7806 48.9142L19.0766 49.2895L19.4014 48.9394C19.4976 48.8432 19.808 48.4955 19.903 48.1972L19.9728 47.9698L19.8152 47.7954L19.7887 47.7629L19.9668 47.4682L21.2684 47.7761L21.562 47.8435L21.7184 47.5849L21.8026 47.4453C21.8182 47.4152 21.8218 47.4104 21.882 47.4104C21.9289 47.4104 21.9746 47.4152 22.0239 47.4273C22.4678 47.5149 22.9189 47.5612 23.3713 47.5656C23.7599 47.5656 23.9944 47.5512 24.2711 47.4585C24.2711 47.4585 24.9701 48.2525 24.9941 48.2838L24.5659 49.6071L24.5466 49.6865C23.737 49.7527 23.3424 49.9307 22.8648 50.4083C22.1719 49.7202 21.6823 49.6468 19.8212 49.6468C17.592 49.6468 16.0811 48.3391 16.0811 46.2471V41.1368H29.6461L29.6486 46.2471C29.6486 47.9422 28.6549 49.1247 27.091 49.5109ZM18.7361 46.6213L18.8071 46.7981C18.759 46.9521 18.2296 47.171 18.2296 47.171L18.1166 46.9196C18.0443 46.7473 18.032 46.5557 18.0815 46.3756C18.131 46.1954 18.2395 46.0371 18.3896 45.9259L19.2474 45.4026L20.1581 45.5951C20.1513 45.7766 20.2059 45.955 20.3132 46.1016L19.3605 45.9187L18.789 46.3133C18.6928 46.3807 18.6856 46.5058 18.7361 46.6213ZM26.9466 48.0649L26.6543 49.5939C26.4666 49.6203 26.2693 49.6348 26.0672 49.642L26.3752 48.1743C26.4666 47.7364 25.2973 47.6005 24.7186 46.7428C24.4359 47.0603 23.9054 47.1554 23.3713 47.1554C22.8829 47.1554 22.3968 47.0772 22.0997 47.0182C22.0282 47.0058 21.9558 46.999 21.8832 46.9978C21.7111 46.9978 21.5559 47.0507 21.4477 47.2324L21.3635 47.3767L19.7683 47.0002L19.3713 47.6582C19.316 47.7653 19.3111 47.8543 19.4014 47.9542L19.5096 48.0721C19.4351 48.3043 19.103 48.6567 19.103 48.6567L18.866 48.3596C18.6784 48.1503 18.7096 47.7653 18.9045 47.4092L19.5373 46.3385L20.8883 46.5346L20.679 46.0546C20.3963 45.4207 20.8269 44.6146 20.8726 44.1503C20.857 44.291 20.7283 44.3223 20.5791 44.3223C20.442 44.3223 20.2904 44.297 20.1893 44.297C20.1496 44.297 20.1147 44.3007 20.0967 44.3139L19.731 44.5364L19.4423 44.2814C19.4074 44.2333 19.3966 44.1166 19.4808 44.03L20.1496 43.2793L19.3605 42.3554L20.4648 42.9124L20.8029 42.5022C20.8955 42.5936 20.8546 42.8306 20.8546 42.8306C21.1999 42.8402 22.1683 43.3755 22.2188 44.6267C22.2224 44.6652 22.2224 44.7073 22.2224 44.7494L22.2477 44.7903C22.3162 44.8853 22.5051 45.1271 22.7445 45.1488L24.2723 45.3004H24.2783C24.4468 45.3004 24.78 45.1031 25.2071 45.1031C25.4417 45.1031 25.7003 45.1632 25.977 45.3376C25.977 45.3376 26.1165 45.227 26.3415 45.2149C26.3583 45.2125 26.3776 45.2125 26.3932 45.2125C27.0789 45.2125 27.3641 45.8333 27.7322 46.3494C28.0089 46.7416 28.3782 47.3238 28.3782 47.3238C28.2422 47.4862 28.1147 47.5764 27.9018 47.5764C27.8356 47.5767 27.7694 47.5702 27.7045 47.5572C26.9707 47.4212 26.8636 45.9091 26.445 45.7888C26.423 45.783 26.4003 45.7801 26.3776 45.7804C26.2429 45.7804 26.1839 45.9007 26.1839 45.9007C26.3764 46.4167 26.2633 46.6249 26.4702 47.0231C26.6242 47.3178 26.8973 47.5596 27.0104 47.6751C27.0104 47.6751 26.9803 47.8988 26.9466 48.0661V48.0649ZM25.5403 49.6528C25.3358 49.6528 25.1457 49.6552 24.9749 49.6624L25.4224 48.2658C25.4922 48.0721 25.1385 47.8231 24.9929 47.6041C25.2131 47.7437 25.7845 48.0492 26.06 48.1695C25.8815 48.6621 25.7082 49.1565 25.5403 49.6528ZM18.8853 37.067L18.949 34.6393L19.4928 34.0631L19.8344 34.7801L19.1608 37.1103L18.8841 37.0682L18.8853 37.067ZM19.2763 37.8201C19.3588 37.9782 19.4838 38.1103 19.6372 38.2014C19.633 38.4322 19.6108 38.6622 19.571 38.8895C19.559 38.9425 19.5469 38.9918 19.5313 39.0411C19.5241 39.0724 19.5144 39.0977 19.5084 39.1181C19.3412 39.1181 19.0152 39.0977 18.7493 39.0002C18.4534 38.892 18.0119 38.3482 18.1142 37.7491C18.2417 37.6709 18.5376 37.5037 18.8155 37.5037C19.0284 37.5037 19.174 37.6047 19.2763 37.8201ZM25.5752 38.4721C25.1577 38.7813 24.0799 39.5692 23.6889 39.8435L19.9259 39.165L19.9523 39.0652C20.0005 38.8691 20.0522 38.602 20.0546 38.288L23.2173 38.3386L23.2774 38.2784C23.3256 38.2303 24.3277 37.2595 24.8377 36.7025C24.9592 36.8553 25.1108 36.9996 25.3105 37.1271C25.2432 37.5001 25.2708 38.027 25.5752 38.4721ZM20.4588 32.8914C20.9123 33.3413 21.3538 33.6216 21.7749 33.7756C21.7208 33.9921 21.6486 34.442 21.8507 34.8884C22.0167 35.2493 22.3175 35.5259 22.7517 35.7112C22.7999 36.1563 23.0802 36.8264 23.8585 37.1223C23.5168 37.4664 23.1848 37.7912 23.0525 37.9211L19.8958 37.8718C19.7915 37.822 19.705 37.7413 19.648 37.6408C19.642 37.6252 19.6311 37.6168 19.6239 37.5999L20.14 37.6841L20.1725 37.6853C20.221 37.6857 20.2681 37.6686 20.3051 37.6373C20.3422 37.606 20.3668 37.5624 20.3746 37.5145C20.3833 37.4606 20.3704 37.4055 20.3386 37.3611C20.3068 37.3167 20.2588 37.2867 20.205 37.2775L19.571 37.1765L20.2735 34.7452L19.6083 33.3413L18.5412 34.4721L18.4763 36.9996L17.7593 36.8853C17.6486 36.8637 17.5427 36.9455 17.5223 37.0574C17.5143 37.1115 17.5278 37.1667 17.5599 37.211C17.5921 37.2553 17.6403 37.2852 17.6943 37.2944L17.9951 37.3401C17.9308 37.3761 17.8681 37.415 17.8074 37.4568L17.7472 37.5001L17.7304 37.5747C17.556 38.2844 17.9505 38.9581 18.3764 39.2589L18.3608 39.3491C18.3439 39.4574 18.368 39.5656 18.4329 39.6535C18.4699 39.7068 18.5194 39.7503 18.5771 39.7801C18.6348 39.8098 18.6989 39.825 18.7638 39.8243C18.8549 39.8235 18.9432 39.792 19.0142 39.7348C19.0851 39.6776 19.1347 39.598 19.1548 39.5091C19.3135 39.5271 19.4591 39.532 19.5578 39.532H19.6432L23.7827 40.2814L23.8537 40.2345C24.1833 40.0035 25.4417 39.0856 25.8531 38.7813C25.9674 38.8787 26.0937 38.9677 26.2465 39.0411C26.1129 39.4898 26.1045 40.1792 26.6314 40.7253H16.0811V34.6261C16.0811 34.0342 15.909 33.4399 15.7045 32.8914H20.4588ZM19.8886 23.6884L22.6423 24.6231V28.9563L20.6152 27.8857L19.8886 23.6872V23.6884ZM26.6062 23.1651C26.6062 22.1076 24.8293 21.1561 22.8684 21.1561H22.8564C20.8955 21.1561 19.1199 22.1076 19.1199 23.1651L19.1584 23.4249L19.9415 27.9278L19.1548 28.3849L17.1205 29.5759H17.1277C17.1277 29.5759 16.6705 29.8117 16.4576 29.956C15.6829 30.495 15.5181 31.2817 15.968 31.6066C16.0787 30.9654 16.5851 30.2953 17.5319 30.2953C18.2152 30.2953 18.7349 30.649 19.156 31.1771C19.2642 31.3106 19.3665 31.4538 19.4615 31.6066C19.5794 31.8002 19.6985 31.9711 19.8152 32.1347H14.5725C14.9575 32.9106 15.3244 33.7323 15.3244 34.6249V46.2483C15.3244 49.0609 17.4838 50.4035 19.82 50.4035C21.6257 50.4035 21.8687 50.3217 22.8648 51.3154C23.8561 50.3217 24.1003 50.4035 25.9072 50.4035C28.2446 50.4035 30.4004 49.0609 30.4004 46.2483V34.6249C30.4004 33.7323 30.7673 32.9106 31.1547 32.1347H25.9096C26.0275 31.9711 26.1454 31.8002 26.2633 31.6066C26.3595 31.4538 26.4618 31.3106 26.5677 31.1771C26.9911 30.6466 27.5108 30.2953 28.1941 30.2953C29.1409 30.2953 29.6461 30.9654 29.758 31.6066C30.208 31.2817 30.0455 30.495 29.2648 29.956C29.0488 29.8188 28.8264 29.692 28.5983 29.5759H28.6068L26.5677 28.3849L25.7857 27.9278L26.5677 23.4249L26.6062 23.1651Z" fill="#1A1919"/>
<path d="M60.2937 42.5383H63.9027V34.1413H68.859V31.0857H55.3373V34.1413H60.2937V42.5383ZM79.8064 31.0857L73.7914 37.7503V31.0857H70.3026V42.5383H73.3823L79.3974 35.8736V42.5383H82.8861V31.0857H79.8064ZM89.0178 38.2796H94.6238V42.5383H98.1125V31.0857H94.6238V35.2721H89.0178V31.0857H85.5291V42.5383H89.0178V38.2796ZM107.828 42.5383C108.622 42.5383 109.344 42.4661 110.017 42.2736C111.822 41.7683 113.001 40.3007 113.001 38.3037C113.001 36.4029 111.99 35.0796 110.378 34.4781C109.608 34.1894 108.694 34.1654 107.828 34.1654H104.243V31.0857H100.754V42.5383H107.828ZM104.243 36.8601H107.226C107.708 36.8601 108.165 36.8601 108.574 37.0044C109.151 37.1969 109.488 37.6781 109.488 38.2556C109.488 38.8571 109.151 39.3623 108.598 39.6029C108.213 39.7714 107.828 39.7714 107.226 39.7714H104.243V36.8601ZM118.294 38.2074H119.256L123.419 42.5383H128.062L122.264 36.5714L127.846 31.0857H123.467L119.256 35.3924H118.294V31.0857H114.805V42.5383H118.294V38.2074Z" fill="black"/>
<path d="M135.241 30.7729C130.549 30.7729 127.734 33.4195 127.734 36.8361C127.734 40.2526 130.549 42.8992 135.241 42.8992C139.909 42.8992 142.724 40.2526 142.724 36.8361C142.724 33.4195 139.909 30.7729 135.241 30.7729ZM135.241 40.1082C132.907 40.1082 131.416 38.7128 131.416 36.8361C131.416 34.9594 132.907 33.588 135.241 33.588C137.551 33.588 139.067 34.9594 139.067 36.8361C139.067 38.7128 137.551 40.1082 135.241 40.1082ZM154.342 31.591V30.4361H150.854V31.591C146.475 31.6872 143.852 33.5398 143.852 36.812C143.852 40.0842 146.475 41.7925 150.854 41.8887V43.0436H154.342V41.8887C158.745 41.7925 161.368 40.0842 161.368 36.812C161.368 33.5398 158.745 31.6872 154.342 31.591ZM150.854 39.4346C148.448 39.3383 147.389 38.3519 147.389 36.812C147.389 35.2722 148.448 34.1654 150.854 34.0692V39.4346ZM154.342 39.4346V34.0692C156.772 34.1654 157.807 35.2722 157.807 36.812C157.807 38.3519 156.772 39.3383 154.342 39.4346ZM172.975 31.591V30.4361H169.486V31.591C165.107 31.6872 162.484 33.5398 162.484 36.812C162.484 40.0842 165.107 41.7925 169.486 41.8887V43.0436H172.975V41.8887C177.378 41.7925 180 40.0842 180 36.812C180 33.5398 177.378 31.6872 172.975 31.591ZM169.486 39.4346C167.08 39.3383 166.021 38.3519 166.021 36.812C166.021 35.2722 167.08 34.1654 169.486 34.0692V39.4346ZM172.975 39.4346V34.0692C175.405 34.1654 176.439 35.2722 176.439 36.812C176.439 38.3519 175.405 39.3383 172.975 39.4346Z" fill="black"/>
</svg>