<svg xmlns="http://www.w3.org/2000/svg" width="180" height="72" viewBox="0 0 180 72" fill="none">
<path fill-rule="evenodd" clip-rule="evenodd" d="M171.788 33.4038L179.282 25.1379H173.7L167.563 32.0157V25.1379H163.121V42.5023H167.563V35.1928L174.132 42.5023H179.869L171.788 33.4038Z" fill="#F03024"/>
<path fill-rule="evenodd" clip-rule="evenodd" d="M155.289 31.6149H149.151V25.1384H144.71V42.5024H149.151V35.6554H155.289V42.5024H159.73V25.1384H155.289V31.6149Z" fill="#F03024"/>
<path fill-rule="evenodd" clip-rule="evenodd" d="M26.3703 34.545C26.2641 37.7825 25.8461 38.4311 24.0264 38.4311V42.5024H24.7046C29.244 42.5024 30.3358 40.1581 30.5032 34.946L30.6885 29.1785H34.9443V42.5024H39.3861V25.1384H26.6788L26.3703 34.545Z" fill="#F03024"/>
<path fill-rule="evenodd" clip-rule="evenodd" d="M47.2178 30.4123H50.4252C54.6506 30.4123 57.0565 32.5714 57.0565 36.3954C57.0565 39.3567 55.3292 42.5026 50.4868 42.5026H42.7764V25.1382H47.2178V30.4123ZM47.2174 38.6781H50.0855C51.6584 38.6781 52.5527 37.9687 52.5527 36.3954C52.5527 34.9461 51.6276 34.2675 50.0855 34.2675H47.2174V38.6781Z" fill="#F03024"/>
<path fill-rule="evenodd" clip-rule="evenodd" d="M71.5211 24.7371V18.291H67.0801V24.7371C61.9913 25.1688 58.5674 28.7776 58.5674 33.8048C58.5674 38.8628 61.9913 42.4716 67.0801 42.9033V49.4418H71.5211V42.9033C76.61 42.5024 80.0339 38.8628 80.0339 33.8048C80.0339 28.7464 76.61 25.138 71.5211 24.7371ZM67.0796 38.7087C64.612 38.3694 63.07 36.5188 63.07 33.8048C63.07 31.0907 64.612 29.2401 67.0796 28.9008V38.7087ZM75.5303 33.8048C75.5303 31.0907 73.9882 29.2401 71.5207 28.9008V38.7087C73.9882 38.3694 75.5303 36.5188 75.5303 33.8048Z" fill="#F03024"/>
<path fill-rule="evenodd" clip-rule="evenodd" d="M96.6886 31.3373V37.1668C96.6886 38.1227 96.9971 38.4928 97.7989 38.4928V42.5025H96.2568C94.5607 42.5025 93.2651 41.8547 92.6793 40.6827C92.0216 41.6528 90.517 42.9342 87.8057 42.9342C84.1093 42.9342 81.5449 40.4666 81.5449 36.8583C81.5449 33.4036 83.8889 31.3373 87.8369 31.3373H92.2476C92.2476 29.2402 91.1368 28.4384 89.4098 28.4384C87.3128 28.4384 86.6342 29.5483 86.4797 30.1961H81.9767C82.1927 27.2356 84.6907 24.3975 89.4098 24.3975C93.9745 24.3975 96.6886 27.0811 96.6886 31.3373ZM88.9776 39.1714C90.8282 39.1714 92.247 38.0302 92.247 36.0256V34.8844H88.6999C87.4971 34.8844 86.1091 35.1617 86.1091 36.8582C86.1091 38.5856 87.3735 39.1714 88.9776 39.1714Z" fill="#F03024"/>
<path fill-rule="evenodd" clip-rule="evenodd" d="M110.753 27.6054H115.718C121.054 27.6054 124.107 30.3814 124.107 34.9769C124.107 39.8501 121.054 42.5025 115.718 42.5025H106.096V18.2908H122.257V22.7014H110.753V27.6054ZM110.752 38.1227H115.502C117.969 38.1227 119.357 37.0436 119.357 34.9769C119.357 32.9723 117.969 31.8311 115.502 31.8311H110.752V38.1227Z" fill="#F03024"/>
<path fill-rule="evenodd" clip-rule="evenodd" d="M141.102 31.3373V37.1668C141.102 38.1227 141.41 38.4928 142.212 38.4928V42.5025H140.67C138.974 42.5025 137.678 41.8547 137.092 40.6827C136.435 41.6528 134.93 42.9342 132.219 42.9342C128.522 42.9342 125.958 40.4666 125.958 36.8583C125.958 33.4036 128.302 31.3373 132.25 31.3373H136.661C136.661 29.2402 135.55 28.4384 133.823 28.4384C131.726 28.4384 131.047 29.5483 130.893 30.1961H126.39C126.606 27.2356 129.104 24.3975 133.823 24.3975C138.388 24.3975 141.102 27.0811 141.102 31.3373ZM133.391 39.1714C135.241 39.1714 136.66 38.0302 136.66 36.0256V34.8844H133.113C131.91 34.8844 130.522 35.1617 130.522 36.8582C130.522 38.5856 131.787 39.1714 133.391 39.1714Z" fill="#F03024"/>
<path fill-rule="evenodd" clip-rule="evenodd" d="M0 54.8395H23.7488V49.9043H0V54.8395Z" fill="#F03024"/>
<path fill-rule="evenodd" clip-rule="evenodd" d="M12.0602 18C14.734 18 15.5146 19.595 16.1916 21.6143L23.1942 42.5021H18.0126L16.4397 37.5369H7.06385L5.3673 42.5021H0.494141L7.84279 21.6143C8.55538 19.5887 9.38568 18 12.0602 18ZM11.814 23.4416L8.48291 33.3419H15.0834L11.9372 23.4416H11.814Z" fill="#F03024"/>
</svg>