<svg xmlns="http://www.w3.org/2000/svg" xmlns:xlink="http://www.w3.org/1999/xlink" width="149pt" height="40pt" viewBox="0 0 149 40" version="1.1">
<g id="surface1">
<path style=" stroke:none;fill-rule:nonzero;fill:rgb(0%,0%,0%);fill-opacity:1;" d="M 146.421875 16.632812 L 148.007812 18.550781 C 147.3125 19.261719 146.480469 19.828125 145.558594 20.203125 C 144.640625 20.582031 143.652344 20.765625 142.65625 20.742188 C 141.378906 20.796875 140.109375 20.542969 138.949219 20.003906 C 136.820312 18.949219 135.75 16.800781 135.75 14.195312 C 135.75 10.238281 138.421875 7.347656 142.363281 7.347656 C 146.71875 7.347656 148.855469 10.625 148.566406 14.882812 L 138.582031 14.882812 C 138.609375 15.410156 138.761719 15.921875 139.027344 16.375 C 139.292969 16.828125 139.664062 17.210938 140.109375 17.492188 C 140.933594 17.972656 141.878906 18.203125 142.832031 18.164062 C 143.503906 18.164062 144.167969 18.027344 144.785156 17.761719 C 145.402344 17.496094 145.960938 17.105469 146.421875 16.613281 Z M 138.613281 12.617188 L 145.664062 12.617188 C 145.492188 11.066406 144.222656 9.769531 142.183594 9.769531 C 141.347656 9.742188 140.527344 10.011719 139.875 10.53125 C 139.21875 11.054688 138.773438 11.792969 138.613281 12.617188 Z M 71.601562 20.414062 L 75.207031 20.414062 L 69.542969 13.835938 L 75.117188 7.65625 L 71.566406 7.65625 L 67.3125 12.617188 L 66.0625 12.617188 L 66.0625 7.671875 L 63.300781 7.671875 L 63.300781 20.414062 L 66.0625 20.414062 L 66.0625 15.347656 L 67.328125 15.347656 Z M 83.328125 9.957031 C 81.027344 9.957031 79.496094 11.753906 79.496094 14.023438 C 79.496094 16.289062 81.027344 18.085938 83.328125 18.085938 C 85.628906 18.085938 87.144531 16.328125 87.144531 14.023438 C 87.144531 11.71875 85.71875 9.957031 83.328125 9.957031 Z M 83.800781 7.351562 C 87.390625 7.351562 90.023438 10.167969 90.023438 14.042969 C 90.023438 17.914062 87.40625 20.742188 83.800781 20.742188 C 83.039062 20.777344 82.273438 20.644531 81.5625 20.359375 C 80.851562 20.070312 80.214844 19.632812 79.6875 19.074219 L 79.6875 25.714844 L 76.910156 25.714844 L 76.910156 7.671875 L 79.617188 7.671875 L 79.617188 9.203125 C 80.125 8.589844 80.765625 8.101562 81.492188 7.78125 C 82.21875 7.460938 83.007812 7.3125 83.800781 7.351562 Z M 120.035156 7.671875 L 108.636719 7.671875 L 108.636719 10.222656 L 112.945312 10.222656 L 112.945312 20.414062 L 115.722656 20.414062 L 115.722656 10.222656 L 120.03125 10.222656 Z M 61.390625 7.671875 L 50 7.671875 L 50 10.222656 L 54.304688 10.222656 L 54.304688 20.414062 L 57.09375 20.414062 L 57.09375 10.222656 L 61.398438 10.222656 Z M 46.621094 14.042969 C 46.621094 11.664062 44.933594 9.90625 42.648438 9.90625 C 40.363281 9.90625 38.675781 11.613281 38.675781 14.042969 C 38.675781 16.472656 40.328125 18.195312 42.648438 18.195312 C 44.96875 18.195312 46.621094 16.453125 46.621094 14.042969 Z M 35.824219 14.042969 C 35.824219 10.222656 38.78125 7.351562 42.648438 7.351562 C 46.515625 7.351562 49.46875 10.222656 49.46875 14.042969 C 49.46875 17.863281 46.515625 20.742188 42.648438 20.742188 C 38.78125 20.742188 35.824219 17.863281 35.824219 14.042969 Z M 133.5 7.671875 L 133.5 20.414062 L 130.777344 20.414062 L 130.777344 12.210938 L 124.113281 20.414062 L 121.933594 20.414062 L 121.933594 7.671875 L 124.660156 7.671875 L 124.660156 15.867188 L 131.34375 7.667969 Z M 106.742188 20.414062 L 103.984375 20.414062 L 103.984375 7.671875 L 106.742188 7.671875 Z M 99.675781 16.066406 C 99.691406 15.8125 99.652344 15.558594 99.5625 15.320312 C 99.472656 15.085938 99.335938 14.867188 99.15625 14.6875 C 98.980469 14.503906 98.769531 14.359375 98.535156 14.265625 C 98.296875 14.171875 98.046875 14.125 97.792969 14.132812 L 95 14.132812 L 95 18.058594 L 97.796875 18.058594 C 98.054688 18.058594 98.308594 18.007812 98.542969 17.90625 C 98.777344 17.808594 98.992188 17.660156 99.167969 17.472656 C 99.34375 17.285156 99.480469 17.066406 99.570312 16.824219 C 99.65625 16.582031 99.695312 16.328125 99.679688 16.070312 Z M 102.425781 16.070312 C 102.425781 18.621094 100.578125 20.417969 97.890625 20.417969 L 92.273438 20.417969 L 92.273438 7.671875 L 95.015625 7.671875 L 95.015625 11.804688 L 98.128906 11.804688 C 100.769531 11.804688 102.421875 13.511719 102.421875 16.082031 "/>
<path style=" stroke:none;fill-rule:nonzero;fill:rgb(0%,0%,0%);fill-opacity:1;" d="M 35.824219 38.773438 L 35.824219 31.835938 L 36.660156 31.835938 L 36.660156 37.605469 L 40.363281 31.835938 L 41.199219 31.835938 L 41.199219 38.773438 L 40.363281 38.773438 L 40.363281 33.003906 L 36.660156 38.773438 Z M 35.824219 38.773438 "/>
<path style=" stroke:none;fill-rule:nonzero;fill:rgb(0%,0%,0%);fill-opacity:1;" d="M 45.730469 36.511719 L 43.265625 36.511719 L 43.265625 38.773438 L 42.445312 38.773438 L 42.445312 33.703125 L 43.242188 33.703125 L 43.242188 35.835938 L 45.710938 35.835938 L 45.710938 33.703125 L 46.507812 33.703125 L 46.507812 38.773438 L 45.710938 38.773438 Z M 45.730469 36.511719 "/>
<path style=" stroke:none;fill-rule:nonzero;fill:rgb(0%,0%,0%);fill-opacity:1;" d="M 47.734375 33.703125 L 49.488281 33.703125 C 50.667969 33.703125 51.253906 34.132812 51.253906 34.992188 L 51.253906 35.019531 C 51.257812 35.261719 51.1875 35.496094 51.050781 35.695312 C 50.910156 35.90625 50.691406 36.050781 50.445312 36.109375 C 51.160156 36.261719 51.519531 36.644531 51.519531 37.253906 L 51.519531 37.28125 C 51.53125 37.492188 51.496094 37.703125 51.410156 37.894531 C 51.328125 38.089844 51.203125 38.261719 51.042969 38.394531 C 50.65625 38.667969 50.191406 38.800781 49.71875 38.773438 L 47.75 38.773438 Z M 48.53125 34.339844 L 48.53125 35.84375 L 49.488281 35.84375 C 49.742188 35.867188 49.996094 35.800781 50.207031 35.660156 C 50.285156 35.582031 50.34375 35.488281 50.378906 35.382812 C 50.417969 35.28125 50.429688 35.167969 50.421875 35.058594 L 50.421875 35.03125 C 50.433594 34.929688 50.417969 34.828125 50.378906 34.730469 C 50.339844 34.636719 50.277344 34.554688 50.195312 34.492188 C 49.976562 34.375 49.726562 34.320312 49.480469 34.339844 Z M 48.53125 36.503906 L 48.53125 38.125 L 49.601562 38.125 C 49.875 38.144531 50.148438 38.078125 50.382812 37.933594 C 50.472656 37.859375 50.542969 37.765625 50.585938 37.660156 C 50.632812 37.550781 50.648438 37.433594 50.640625 37.320312 L 50.640625 37.292969 C 50.648438 37.175781 50.632812 37.058594 50.585938 36.949219 C 50.542969 36.839844 50.472656 36.746094 50.382812 36.667969 C 50.148438 36.523438 49.875 36.453125 49.601562 36.476562 Z M 48.53125 36.503906 "/>
<path style=" stroke:none;fill-rule:nonzero;fill:rgb(0%,0%,0%);fill-opacity:1;" d="M 54.472656 38.859375 C 54.148438 38.871094 53.824219 38.8125 53.523438 38.691406 C 53.222656 38.570312 52.949219 38.386719 52.722656 38.152344 C 52.492188 37.902344 52.316406 37.609375 52.199219 37.289062 C 52.085938 36.96875 52.03125 36.632812 52.046875 36.292969 L 52.046875 36.214844 C 52.019531 35.53125 52.257812 34.859375 52.707031 34.34375 C 52.917969 34.105469 53.183594 33.917969 53.476562 33.792969 C 53.769531 33.667969 54.085938 33.609375 54.402344 33.621094 C 54.699219 33.613281 54.992188 33.664062 55.265625 33.773438 C 55.542969 33.878906 55.792969 34.042969 56.007812 34.246094 C 56.238281 34.503906 56.417969 34.800781 56.527344 35.128906 C 56.640625 35.453125 56.683594 35.800781 56.65625 36.144531 L 56.65625 36.40625 L 52.871094 36.40625 C 52.910156 37.601562 53.445312 38.199219 54.476562 38.199219 C 55.265625 38.199219 55.710938 37.90625 55.808594 37.320312 L 56.605469 37.320312 C 56.574219 37.546875 56.496094 37.769531 56.375 37.96875 C 56.253906 38.164062 56.09375 38.335938 55.90625 38.46875 C 55.480469 38.746094 54.976562 38.882812 54.472656 38.859375 Z M 55.824219 35.746094 C 55.753906 34.769531 55.273438 34.28125 54.386719 34.28125 C 54.203125 34.273438 54.019531 34.304688 53.851562 34.371094 C 53.679688 34.441406 53.523438 34.539062 53.390625 34.667969 C 53.109375 34.964844 52.9375 35.34375 52.894531 35.75 Z M 55.824219 35.746094 "/>
<path style=" stroke:none;fill-rule:nonzero;fill:rgb(0%,0%,0%);fill-opacity:1;" d="M 59.574219 38.859375 C 59.246094 38.871094 58.921875 38.8125 58.617188 38.691406 C 58.3125 38.574219 58.039062 38.390625 57.804688 38.15625 C 57.574219 37.910156 57.390625 37.617188 57.273438 37.296875 C 57.152344 36.976562 57.101562 36.632812 57.117188 36.292969 L 57.117188 36.214844 C 57.101562 35.871094 57.160156 35.527344 57.28125 35.207031 C 57.402344 34.886719 57.585938 34.59375 57.820312 34.34375 C 58.046875 34.109375 58.316406 33.921875 58.613281 33.800781 C 58.914062 33.675781 59.234375 33.613281 59.554688 33.621094 C 60.078125 33.605469 60.589844 33.757812 61.023438 34.054688 C 61.226562 34.210938 61.394531 34.414062 61.511719 34.644531 C 61.632812 34.875 61.699219 35.128906 61.714844 35.386719 L 60.925781 35.386719 C 60.90625 35.222656 60.855469 35.066406 60.773438 34.921875 C 60.695312 34.777344 60.585938 34.652344 60.457031 34.550781 C 60.328125 34.449219 60.179688 34.378906 60.019531 34.335938 C 59.863281 34.292969 59.695312 34.285156 59.535156 34.308594 C 59.316406 34.304688 59.097656 34.351562 58.894531 34.445312 C 58.695312 34.539062 58.519531 34.675781 58.378906 34.847656 C 58.0625 35.242188 57.898438 35.742188 57.925781 36.25 L 57.925781 36.324219 C 57.890625 36.832031 58.050781 37.335938 58.367188 37.730469 C 58.648438 38.015625 59.023438 38.1875 59.421875 38.21875 C 59.820312 38.25 60.214844 38.136719 60.535156 37.898438 C 60.671875 37.785156 60.785156 37.648438 60.863281 37.488281 C 60.945312 37.332031 60.992188 37.160156 61 36.984375 L 61.714844 36.984375 C 61.695312 37.246094 61.625 37.503906 61.507812 37.738281 C 61.390625 37.976562 61.226562 38.183594 61.027344 38.355469 C 60.617188 38.695312 60.101562 38.875 59.574219 38.859375 Z M 59.574219 38.859375 "/>
<path style=" stroke:none;fill-rule:nonzero;fill:rgb(0%,0%,0%);fill-opacity:1;" d="M 65.996094 34.378906 L 64.390625 34.378906 L 64.390625 38.765625 L 63.59375 38.765625 L 63.59375 34.378906 L 61.988281 34.378906 L 61.988281 33.703125 L 65.996094 33.703125 Z M 65.996094 34.378906 "/>
<path style=" stroke:none;fill-rule:nonzero;fill:rgb(0%,0%,0%);fill-opacity:1;" d="M 66.691406 38.773438 L 66.691406 33.703125 L 67.488281 33.703125 L 67.488281 37.605469 L 70.050781 33.695312 L 70.847656 33.695312 L 70.847656 38.765625 L 70.050781 38.765625 L 70.050781 34.847656 L 67.488281 38.757812 Z M 66.691406 38.773438 "/>
<path style=" stroke:none;fill-rule:nonzero;fill:rgb(0%,0%,0%);fill-opacity:1;" d="M 76.050781 40 L 75.992188 38.765625 L 71.964844 38.765625 L 71.964844 33.703125 L 72.761719 33.703125 L 72.761719 38.089844 L 75.132812 38.089844 L 75.132812 33.703125 L 75.929688 33.703125 L 75.929688 38.089844 L 76.699219 38.089844 L 76.699219 40 Z M 76.050781 40 "/>
<path style=" stroke:none;fill-rule:nonzero;fill:rgb(0%,0%,0%);fill-opacity:1;" d="M 77.289062 38.773438 L 77.289062 33.703125 L 78.085938 33.703125 L 78.085938 37.605469 L 80.648438 33.695312 L 81.445312 33.695312 L 81.445312 38.765625 L 80.648438 38.765625 L 80.648438 34.847656 L 78.085938 38.757812 Z M 77.289062 38.773438 "/>
<path style=" stroke:none;fill-rule:nonzero;fill:rgb(0%,0%,0%);fill-opacity:1;" d="M 82.554688 38.773438 L 82.554688 33.703125 L 83.351562 33.703125 L 83.351562 37.605469 L 85.914062 33.695312 L 86.714844 33.695312 L 86.714844 38.765625 L 85.914062 38.765625 L 85.914062 34.847656 L 83.351562 38.757812 Z M 82.554688 38.773438 "/>
<path style=" stroke:none;fill-rule:nonzero;fill:rgb(22.745098%,71.372549%,92.54902%);fill-opacity:1;" d="M 14.246094 0 C 11.425781 0 8.671875 0.839844 6.328125 2.410156 C 3.988281 3.980469 2.160156 6.210938 1.082031 8.824219 C 0.00390625 11.433594 -0.277344 14.304688 0.273438 17.078125 C 0.824219 19.847656 2.183594 22.394531 4.175781 24.390625 C 6.167969 26.386719 8.707031 27.746094 11.472656 28.296875 C 14.238281 28.847656 17.101562 28.5625 19.703125 27.484375 C 22.308594 26.402344 24.53125 24.570312 26.097656 22.21875 C 27.664062 19.871094 28.5 17.105469 28.496094 14.28125 C 28.496094 12.40625 28.128906 10.546875 27.410156 8.816406 C 26.695312 7.082031 25.644531 5.507812 24.320312 4.179688 C 22.996094 2.855469 21.425781 1.804688 19.699219 1.085938 C 17.96875 0.367188 16.117188 0 14.246094 0 Z M 12.234375 20.363281 L 11.175781 23.484375 C 9.25 22.824219 7.574219 21.574219 6.390625 19.914062 C 5.207031 18.253906 4.570312 16.261719 4.570312 14.21875 C 4.570312 12.175781 5.207031 10.1875 6.390625 8.523438 C 7.574219 6.863281 9.25 5.617188 11.175781 4.957031 L 12.222656 8.082031 C 10.945312 8.519531 9.839844 9.347656 9.058594 10.449219 C 8.277344 11.550781 7.855469 12.871094 7.855469 14.222656 C 7.855469 15.574219 8.277344 16.890625 9.058594 17.992188 C 9.839844 19.09375 10.945312 19.921875 12.222656 20.363281 Z M 17.125 23.546875 L 16.140625 20.402344 C 17.4375 19.984375 18.574219 19.164062 19.378906 18.0625 C 20.1875 16.957031 20.625 15.628906 20.632812 14.257812 C 20.640625 12.890625 20.21875 11.554688 19.425781 10.441406 C 18.628906 9.332031 17.503906 8.496094 16.210938 8.0625 L 17.234375 4.929688 C 19.1875 5.582031 20.886719 6.839844 22.085938 8.515625 C 23.285156 10.195312 23.921875 12.210938 23.910156 14.277344 C 23.898438 16.339844 23.238281 18.351562 22.015625 20.015625 C 20.796875 21.679688 19.085938 22.914062 17.125 23.542969 "/>
</g>
</svg>