<svg xmlns="http://www.w3.org/2000/svg" width="180" height="72" viewBox="0 0 180 72" fill="none">
<path d="M48.651 33.8976C49.4201 34.1847 50.1071 34.5846 50.6608 35.087C51.2144 35.6202 51.6656 36.2457 52.004 36.9634C52.3218 37.6812 52.4756 38.4707 52.4756 39.3423C52.4756 40.2138 52.3218 40.9828 52.004 41.6903C51.6554 42.4081 51.2144 43.0336 50.6608 43.536C50.1071 44.0692 49.4201 44.4588 48.651 44.7562C47.8615 45.0433 47.0105 45.2073 46.0876 45.2073H36.8594V26.4432H50.8761V30.0935H40.7147V33.4772H46.0876C47.0105 33.4772 47.8513 33.6002 48.651 33.8976ZM48.0153 37.5991C47.5129 37.1993 46.8567 36.9942 46.0364 36.9942H40.7147V41.6698H46.0364C46.8567 41.6698 47.5129 41.4545 48.0153 41.0649C48.5177 40.665 48.7536 40.1113 48.7536 39.3423C48.7536 38.5732 48.5177 37.9888 48.0153 37.5991Z" fill="#006DF0"/>
<path d="M59.6435 45.2073H55.9521V26.4432H59.6435V34.4L66.2058 26.4432H70.7994L63.3142 35.4561L72.3682 45.2073H67.549L59.6537 36.6968V45.2073H59.6435Z" fill="#006DF0"/>
<path d="M78.0277 44.7562C76.8382 44.2538 75.8026 43.5668 74.9311 42.6952C74.0595 41.8236 73.3725 40.8188 72.8701 39.6294C72.3677 38.44 72.1318 37.1685 72.1318 35.8253C72.1318 34.4821 72.3677 33.2106 72.8701 32.0212C73.3725 30.8318 74.0595 29.7961 74.9311 28.9246C75.8026 28.053 76.8382 27.366 78.0277 26.8636C79.2171 26.3612 80.5398 26.1254 81.9651 26.1254C83.0212 26.1254 84.0568 26.2792 85.0309 26.597C86.005 26.9456 86.9073 27.3865 87.7276 27.971C88.5171 28.576 89.2041 29.263 89.7886 30.0832C90.373 30.9035 90.7934 31.8264 91.06 32.8312H86.9073C86.7227 32.3596 86.4562 31.9289 86.1178 31.5598C85.7692 31.1906 85.3795 30.8728 84.9284 30.6062C84.4772 30.3704 84.026 30.155 83.5236 30.0217C83.0212 29.8884 82.488 29.8064 81.9651 29.8064C81.0627 29.8064 80.2425 29.9602 79.535 30.2576C78.7967 30.5754 78.161 30.9958 77.6278 31.5495C77.0946 32.1032 76.705 32.7389 76.4076 33.4567C76.1102 34.1744 75.9872 34.964 75.9872 35.8048C75.9872 36.6456 76.1205 37.4454 76.4076 38.1529C76.6947 38.8706 77.0946 39.4961 77.6278 40.06C78.161 40.6137 78.7864 41.0341 79.535 41.3315C80.2527 41.6493 81.073 41.8031 81.9651 41.8031C82.4983 41.8031 83.0212 41.7211 83.5236 41.5878C84.026 41.4545 84.4772 41.2392 84.9284 40.9829C85.3795 40.747 85.7692 40.4292 86.1178 40.06C86.4664 39.6909 86.7227 39.2705 86.9073 38.7886H91.06C90.7934 39.7934 90.373 40.6958 89.7886 41.516C89.2041 42.3363 88.5171 43.0541 87.7276 43.6283C86.9073 44.2332 86.005 44.6844 85.0309 45.0023C84.0568 45.3509 83.0212 45.5047 81.9651 45.5047C80.5398 45.5252 79.2171 45.2586 78.0277 44.7562Z" fill="#006DF0"/>
<path d="M98.0532 26.4432L100.781 30.1345L103.518 26.4432H104.698V34.236H103.406V28.6478L100.801 32.1853L98.1762 28.6375V34.236H96.8945V26.4432H98.0532Z" fill="#006DF0"/>
<path d="M107.21 34.2462V26.4535H108.502V32.052L112.88 26.4535H113.998V34.2462H112.716V28.6272L108.328 34.236H107.21V34.2462Z" fill="#006DF0"/>
<path d="M119.012 31.5393H117.812V34.236H116.53V26.4432H119.012C120.611 26.4432 121.708 27.5506 121.708 28.9861C121.708 30.4319 120.611 31.5393 119.012 31.5393ZM119.001 27.6531H117.812V30.3293H119.001C119.924 30.3293 120.447 29.7449 120.447 28.9861C120.447 28.2376 119.924 27.6531 119.001 27.6531Z" fill="#006DF0"/>
<path d="M96.874 45.2074V37.4146H98.166V43.0131L102.544 37.4146H103.662V45.2074H102.38V39.5986L97.9917 45.2074H96.874Z" fill="#006DF0"/>
<path d="M106.194 37.4146H107.476V40.6445H111.331V37.4146H112.613V45.2074H111.331V41.8544H107.476V45.2074H106.194V37.4146Z" fill="#006DF0"/>
<path d="M115.146 37.4146H117.832C119.226 37.4146 120.16 38.3887 120.16 39.5679C120.16 40.2754 119.862 40.7573 119.432 41.0751C120.149 41.3725 120.682 41.9672 120.682 42.931C120.682 44.2127 119.647 45.2176 118.17 45.2176H115.146V37.4146ZM117.77 40.6958C118.478 40.6958 118.898 40.2446 118.898 39.6396C118.898 39.0654 118.468 38.5835 117.77 38.5835H116.427V40.6958H117.77ZM118.14 44.0384C118.97 44.0384 119.432 43.577 119.432 42.9208C119.432 42.2748 118.97 41.8031 118.14 41.8031H116.427V44.0384H118.14Z" fill="#006DF0"/>
<path d="M122.733 37.4146H127.419V38.645H124.015V40.6445H126.763V41.8749H124.015V43.9872H127.419V45.2176H122.733V37.4146Z" fill="#006DF0"/>
<path d="M128.865 41.311C128.865 39.0244 130.598 37.2813 132.926 37.2813C134.802 37.2813 136.299 38.5015 136.678 40.0293H135.294C134.966 39.1372 134.023 38.522 132.926 38.522C131.295 38.522 130.157 39.7422 130.157 41.311C130.157 42.8798 131.295 44.1 132.926 44.1C134.023 44.1 134.966 43.4848 135.294 42.5927H136.678C136.299 44.1205 134.802 45.3407 132.926 45.3407C130.598 45.3407 128.865 43.5975 128.865 41.311Z" fill="#006DF0"/>
<path d="M140.175 38.645H137.909V37.4146H143.733V38.645H141.457V45.2074H140.175V38.645Z" fill="#006DF0"/>
<path d="M145.558 45.2074V37.4146H146.85V43.0131L151.228 37.4146H152.346V45.2074H151.064V39.5986L146.675 45.2074H145.558Z" fill="#006DF0"/>
<path d="M161.943 43.9872V46.8377H160.754V45.2176H154.868V37.4249H156.16V43.9872H159.657V37.4249H160.949V43.9872H161.943Z" fill="#006DF0"/>
<path d="M163.892 45.2074V37.4146H165.184V43.0131L169.562 37.4146H170.679V45.2074H169.398V39.5986L165.009 45.2074H163.892Z" fill="#006DF0"/>
<path d="M173.212 45.2074V37.4146H174.504V43.0131L178.882 37.4146H180V45.2074H178.718V39.5986L174.33 45.2074H173.212ZM174.893 35.0973H175.734C175.734 35.7535 176.103 36.1637 176.708 36.1637C177.313 36.1637 177.682 35.7535 177.682 35.0973H178.523C178.523 36.2149 177.713 36.9224 176.698 36.9224C175.704 36.9224 174.893 36.2149 174.893 35.0973Z" fill="#006DF0"/>
<path d="M22.0532 22.9672C29.2307 27.0174 31.8351 36.0098 27.867 43.0438C23.8988 50.0778 14.8551 52.4976 7.67761 48.4475C0.500076 44.3973 -2.1146 35.4049 1.85355 28.3709C5.82171 21.3369 14.8654 18.9068 22.0532 22.9672Z" fill="url(#paint0_linear)"/>
<path d="M8.34394 41.3827C2.91977 36.0713 2.40709 28.2478 7.18528 23.9003C11.9635 19.5528 20.2279 20.332 25.6521 25.6434C31.0762 30.9548 31.5889 38.7885 26.8107 43.1361C22.0325 47.4836 13.7579 46.7043 8.34394 41.3827Z" fill="url(#paint1_radial)"/>
<path d="M13.9935 35.856C8.48726 32.7081 5.86233 27.366 8.11813 23.9208C10.3739 20.4756 16.6697 20.25 22.1656 23.3979C27.6615 26.5457 30.2967 31.8879 28.0409 35.3331C25.7851 38.7783 19.4894 39.0039 13.9935 35.856Z" fill="url(#paint2_radial)"/>
<defs>
<linearGradient id="paint0_linear" x1="15.8337" y1="64.0908" x2="15.1517" y2="22.992" gradientUnits="userSpaceOnUse">
<stop stop-color="#006DEF"/>
<stop offset="0.111" stop-color="#0570EF"/>
<stop offset="0.235" stop-color="#1277F0"/>
<stop offset="0.3652" stop-color="#2884F2"/>
<stop offset="0.4998" stop-color="#4896F3"/>
<stop offset="0.6379" stop-color="#70ADF6"/>
<stop offset="0.7787" stop-color="#A1C9F9"/>
<stop offset="0.9192" stop-color="#DBEAFD"/>
<stop offset="1" stop-color="white"/>
</linearGradient>
<radialGradient id="paint1_radial" cx="0" cy="0" r="1" gradientUnits="userSpaceOnUse" gradientTransform="translate(24.2168 35.4292) rotate(73.6472) scale(17.2655 35.626)">
<stop offset="0.0292892" stop-color="#006DEF"/>
<stop offset="0.1048" stop-color="#0671EF"/>
<stop offset="0.209" stop-color="#187BF0"/>
<stop offset="0.3299" stop-color="#358BF2"/>
<stop offset="0.4634" stop-color="#5EA3F4"/>
<stop offset="0.6071" stop-color="#92C1F8"/>
<stop offset="0.7572" stop-color="#D1E4FB"/>
<stop offset="0.8251" stop-color="#F0F6FD"/>
</radialGradient>
<radialGradient id="paint2_radial" cx="0" cy="0" r="1" gradientUnits="userSpaceOnUse" gradientTransform="translate(38.0808 30.02) rotate(-8.56526) scale(28.6918 34.4148)">
<stop offset="0.0604415" stop-color="#006DEF"/>
<stop offset="0.0932271" stop-color="#0F75F0"/>
<stop offset="0.2525" stop-color="#529CF4"/>
<stop offset="0.4035" stop-color="#8BBCF7"/>
<stop offset="0.5422" stop-color="#B6D5FA"/>
<stop offset="0.6658" stop-color="#D6E7FB"/>
<stop offset="0.77" stop-color="#E9F2FD"/>
<stop offset="0.842" stop-color="#F0F6FD"/>
</radialGradient>
</defs>
</svg>