<svg xmlns="http://www.w3.org/2000/svg" width="180" height="72" viewBox="0 0 180 72" fill="none">
<path d="M92.8137 39.3417C92.8137 42.0643 92.0676 44.1836 90.615 45.6918C89.1624 47.1999 86.8526 48.1524 83.9157 48.1524H81.3836V49.9304H76.3909V48.1683H73.8668C68.0565 48.1683 64.9688 44.8186 64.9688 39.3417C64.9688 33.3885 68.0565 29.9754 73.4143 29.9754H76.3909V28.2371H81.3836V29.9674H84.3602C89.6942 29.9754 92.8137 33.3885 92.8137 39.3417ZM76.3909 44.5408V33.6425H74.8034C71.7157 33.6425 70.0408 35.6587 70.0408 38.9686C70.0408 42.5088 71.7554 44.5249 75.1764 44.5249L76.3909 44.5408ZM87.7099 38.9845C87.7099 35.746 86.035 33.6584 82.9473 33.6584H81.3598V44.5408H82.5504C85.9953 44.5408 87.7099 42.5088 87.7099 38.9686V38.9845Z" fill="#010101"/>
<path d="M112.475 48.1841H107.498V37.3017L99.9496 48.1841H94.9648V29.9754H99.9496V40.8657L107.498 29.9436H112.475V48.1841Z" fill="#010101"/>
<path d="M133.184 48.1841H128.199V40.8657H120.651V48.1523H115.666V29.9753H120.651V37.3017H128.191V29.9753H133.176L133.184 48.1841Z" fill="#010101"/>
<path d="M153.743 48.1842H142.519C140.874 48.2884 139.237 47.8778 137.836 47.0095C137.189 46.5125 136.673 45.8653 136.333 45.1239C135.993 44.3825 135.839 43.5694 135.884 42.7549C135.862 42.0393 135.983 41.3265 136.241 40.6586C136.498 39.9906 136.887 39.3809 137.384 38.8655C138.463 37.7543 140.098 37.3177 142.297 37.3177H149.131V36.897C149.131 34.6269 148.084 33.6744 145.29 33.6744H136.939V29.9675H146.845C148.338 29.8745 149.825 30.2193 151.124 30.9597C152.87 32.1503 153.727 34.5554 153.727 38.0162L153.743 48.1842ZM149.131 44.5567V40.9213H142.551C141.218 40.9213 140.321 41.3182 140.321 42.7708C140.321 44.2234 141.329 44.5567 142.551 44.5567H149.131Z" fill="#010101"/>
<path d="M175.42 29.9912C174.568 29.951 173.73 30.2111 173.051 30.7261C172.372 31.2412 171.896 31.9784 171.705 32.809L168.403 42.7389L165.101 32.809C164.908 31.9778 164.43 31.2404 163.75 30.7254C163.07 30.2105 162.23 29.9506 161.378 29.9912H156.846V48.1682H161.83V35.3649L166.061 48.1841H170.784L175.015 35.3649V48.1841H180V29.9991L175.42 29.9912Z" fill="#010101"/>
<path d="M8.04883 49.9384L10.819 52.0895L13.5892 54.2406C13.9925 52.9268 14.5243 51.656 15.1768 50.4464L9.62046 46.1443C8.97174 47.3536 8.44526 48.6246 8.04883 49.9384Z" fill="#CE6814"/>
<path d="M10.0254 45.5171L15.5817 49.8272C16.2525 48.6698 17.0227 47.5729 17.8836 46.549L12.3273 42.2468C11.4622 43.2647 10.6917 44.3593 10.0254 45.5171Z" fill="#D8850B"/>
<path d="M12.7959 41.715L18.3522 46.0172C19.2673 45.0121 20.2894 44.1098 21.4002 43.3263L15.8439 39.0242C14.7311 39.8051 13.7088 40.7076 12.7959 41.715Z" fill="#D7981A"/>
<path d="M34.457 28.7767L40.0133 33.0789C40.9886 32.1625 41.9008 31.1813 42.7438 30.142L37.1876 25.8398C36.3402 26.8754 35.4282 27.8563 34.457 28.7767Z" fill="#FAD33F"/>
<path d="M21.2256 36.3571L26.7819 40.6672C28.1075 40.1433 29.5362 39.5798 31.0364 38.913L25.4801 34.6108C23.9879 35.3093 22.5512 35.8332 21.2256 36.3571Z" fill="#FEDE6C"/>
<path d="M16.9313 38.3097L16.4551 38.6113L22.0114 42.9135L22.4797 42.6198C23.6166 41.9814 24.8 41.4295 26.0198 40.9688L20.4635 36.6587C19.2484 37.1244 18.068 37.6761 16.9313 38.3097Z" fill="#F8AA00"/>
<path d="M42.4023 17.0531L47.9586 21.3632C48.4905 20.1487 48.9905 18.8549 49.4747 17.4817L43.9184 13.1716C43.4422 14.5739 42.9368 15.8678 42.4023 17.0531Z" fill="#E89500"/>
<path d="M40.2432 21.371L45.7995 25.6731C46.4712 24.4996 47.0806 23.2914 47.6251 22.0536L42.0688 17.7515C41.5132 19.0532 40.894 20.228 40.2432 21.371Z" fill="#EBA600"/>
<path d="M26.1943 34.2775L31.7506 38.5797C33.066 37.9629 34.3436 37.2685 35.5765 36.5L30.0202 32.1899C28.7882 32.9623 27.5106 33.6594 26.1943 34.2775Z" fill="#FFF7BC"/>
<path d="M30.6631 31.7851L36.2194 36.0873C37.3635 35.3253 38.4511 34.4817 39.4738 33.5631L33.9175 29.261C32.8911 30.1751 31.8038 31.0184 30.6631 31.7851Z" fill="#FFDB7E"/>
<path d="M37.624 25.2842L43.1803 29.5864C43.9954 28.5306 44.7481 27.428 45.4346 26.2843L39.8783 21.9822C39.1899 23.1246 38.4373 24.227 37.624 25.2842Z" fill="#EFB100"/>
<path d="M0 43.6834L2.77021 45.8345L5.55629 48.0094C5.96084 46.6884 6.4925 45.4098 7.1438 44.1914L1.58751 39.8813C0.932501 41.0924 0.400666 42.3662 0 43.6834H0Z" fill="#8D1913"/>
<path d="M1.97656 39.2783L7.53285 43.5805C8.20193 42.4245 8.97224 41.3301 9.83474 40.3102L4.27845 36.0081C3.41559 37.0276 2.64525 38.1221 1.97656 39.2783Z" fill="#BB1B18"/>
<path d="M4.7627 35.4602L10.319 39.7624C11.2341 38.7573 12.2562 37.855 13.367 37.0716L7.81072 32.7615C6.6978 33.5453 5.67551 34.4504 4.7627 35.4602Z" fill="#C21B18"/>
<path d="M26.4004 22.514L31.9567 26.8162C32.9338 25.9045 33.8462 24.9258 34.6872 23.8872L29.1309 19.5771C28.2899 20.6182 27.3776 21.5996 26.4004 22.514Z" fill="#E03D2E"/>
<path d="M13.1758 30.1023L18.7321 34.4045C20.0497 33.8806 21.4864 33.325 22.9866 32.6582L17.4303 28.3481C15.9301 29.0228 14.5014 29.5785 13.1758 30.1023Z" fill="#F2908E"/>
<path d="M8.88153 32.0551L8.40527 32.3488L13.9616 36.6588L14.4299 36.3572C15.5681 35.7267 16.7483 35.175 17.9621 34.7062L12.4058 30.4041C11.1934 30.8701 10.0156 31.4218 8.88153 32.0551Z" fill="#E52A12"/>
<path d="M32.2031 15.1084L37.7594 19.4106C38.4389 18.2387 39.0588 17.0333 39.6168 15.799L34.0605 11.4968C33.4652 12.7986 32.8461 13.9972 32.2031 15.1084Z" fill="#C31C18"/>
<path d="M18.1533 28.0147L23.7096 32.3248C25.0267 31.7083 26.3044 31.0111 27.5355 30.2372L21.9792 25.9351C20.7489 26.708 19.471 27.4025 18.1533 28.0147Z" fill="#F9CECF"/>
<path d="M22.6143 25.5224L28.1705 29.8325C29.3128 29.0679 30.4002 28.2245 31.4249 27.3084L25.8687 22.9983C24.8463 23.9172 23.7586 24.7608 22.6143 25.5224Z" fill="#F18E99"/>
<path d="M29.5752 19.0216L35.1315 23.3317C35.944 22.274 36.6966 21.1716 37.3858 20.0297L31.8295 15.7275C31.1429 16.8686 30.3902 17.9685 29.5752 19.0216Z" fill="#D21F16"/>
<path d="M16.0977 56.201L18.8679 58.3283L21.6381 60.4873C22.0396 59.1729 22.5714 57.9019 23.2256 56.6932L17.6693 52.3831C17.0188 53.5998 16.4922 54.8789 16.0977 56.201Z" fill="#8D1913"/>
<path d="M18.0732 51.7799L23.6295 56.0741C24.2949 54.9201 25.0626 53.8283 25.9235 52.8118L20.3672 48.5017C19.5065 49.524 18.7388 50.6211 18.0732 51.7799Z" fill="#BB1B18"/>
<path d="M20.8438 48.0096L26.4 52.3197C27.3083 51.3071 28.3221 50.3944 29.4242 49.5971L23.868 45.2949C22.7623 46.0847 21.7479 46.9952 20.8438 48.0096Z" fill="#C21B18"/>
<path d="M42.5059 35.0317L48.0622 39.3339C49.044 38.4216 49.9591 37.4401 50.8006 36.397L45.2443 32.1345C44.3974 33.1604 43.4825 34.1284 42.5059 35.0317Z" fill="#E03D2E"/>
<path d="M29.2734 42.6199L34.8297 46.9221C36.1474 46.3982 37.5841 45.8426 39.0843 45.1679L33.528 40.8657C32.0357 41.5404 30.599 42.096 29.2734 42.6199Z" fill="#F2908E"/>
<path d="M24.9791 44.5725L24.5107 44.8662L30.067 49.1684L30.5433 48.8747C31.672 48.2394 32.8445 47.685 34.0517 47.2157L28.4954 42.9136C27.2841 43.3793 26.1087 43.9338 24.9791 44.5725Z" fill="#E52A12"/>
<path d="M34.2588 40.5323L39.8151 44.8344C41.1374 44.2212 42.4204 43.5266 43.6569 42.7548L38.1006 38.4844C36.8617 39.2425 35.5788 39.9264 34.2588 40.5323Z" fill="#F9CECF"/>
<path d="M38.7109 38.04L44.2672 42.3422C45.4143 41.5808 46.5046 40.7372 47.5296 39.818L41.9733 35.5159C40.9479 36.4345 39.8576 37.2781 38.7109 38.04Z" fill="#F18E99"/>
<path d="M45.6729 31.5391L51.2291 35.8412C52.0487 34.7869 52.8041 33.6842 53.4913 32.5392L47.9351 28.2371C47.246 29.3809 46.4906 30.4834 45.6729 31.5391Z" fill="#D21F16"/>
</svg>