<svg xmlns="http://www.w3.org/2000/svg" xmlns:xlink="http://www.w3.org/1999/xlink" width="135px" height="27px" viewBox="0 0 137 27" version="1.1">
<g id="surface1">
<path style=" stroke:none;fill-rule:nonzero;fill:rgb(19.607843%,24.313725%,28.235294%);fill-opacity:1;" d="M 30.96875 0 L 37.300781 0 C 40.554688 0 42.71875 2.632812 42.71875 5.238281 C 42.6875 8.222656 40.265625 10.617188 37.300781 10.601562 L 33.386719 10.601562 L 33.386719 14.921875 L 30.972656 14.921875 Z M 37.105469 8.359375 C 39.191406 8.359375 40.28125 6.753906 40.28125 5.285156 C 40.28125 3.8125 39.191406 2.230469 37.105469 2.230469 L 33.386719 2.230469 L 33.386719 8.359375 Z M 37.105469 8.359375 "/>
<path style=" stroke:none;fill-rule:nonzero;fill:rgb(19.607843%,24.313725%,28.235294%);fill-opacity:1;" d="M 43.417969 9.472656 C 43.417969 6.292969 45.613281 3.773438 48.953125 3.773438 C 52.402344 3.773438 54.070312 6.710938 54.070312 9.5625 L 54.070312 10.179688 L 45.8125 10.179688 C 46.121094 12.039062 47.722656 13.097656 49.875 13.097656 C 51.097656 13.097656 52.296875 12.761719 53.34375 12.125 L 53.34375 14.132812 C 52.488281 14.753906 51.015625 15.195312 49.367188 15.195312 C 46.097656 15.199219 43.417969 12.941406 43.417969 9.472656 Z M 51.675781 8.371094 C 51.65625 7.1875 50.75 5.785156 48.84375 5.785156 C 47.019531 5.785156 45.96875 7.042969 45.832031 8.371094 Z M 51.675781 8.371094 "/>
<path style=" stroke:none;fill-rule:nonzero;fill:rgb(19.607843%,24.313725%,28.235294%);fill-opacity:1;" d="M 56.21875 4.058594 L 58.589844 4.058594 L 58.589844 8.304688 L 64.058594 8.304688 L 64.058594 4.058594 L 66.429688 4.058594 L 66.429688 14.898438 L 64.058594 14.898438 L 64.058594 10.402344 L 58.589844 10.402344 L 58.589844 14.910156 L 56.21875 14.910156 Z M 56.21875 4.058594 "/>
<path style=" stroke:none;fill-rule:nonzero;fill:rgb(19.607843%,24.313725%,28.235294%);fill-opacity:1;" d="M 68.511719 9.472656 C 68.511719 6.292969 70.707031 3.773438 74.042969 3.773438 C 77.496094 3.773438 79.164062 6.710938 79.164062 9.5625 L 79.164062 10.179688 L 70.90625 10.179688 C 71.210938 12.039062 72.816406 13.097656 74.96875 13.097656 C 76.191406 13.097656 77.390625 12.761719 78.4375 12.125 L 78.4375 14.132812 C 77.582031 14.753906 76.109375 15.195312 74.464844 15.195312 C 71.1875 15.199219 68.511719 12.941406 68.511719 9.472656 Z M 76.769531 8.371094 C 76.746094 7.195312 75.847656 5.785156 73.933594 5.785156 C 72.113281 5.785156 71.058594 7.042969 70.925781 8.371094 Z M 76.769531 8.371094 "/>
<path style=" stroke:none;fill-rule:nonzero;fill:rgb(19.607843%,24.313725%,28.235294%);fill-opacity:1;" d="M 80.574219 9.453125 C 80.574219 6.050781 83.253906 3.773438 86.417969 3.773438 C 87.546875 3.738281 88.664062 3.996094 89.664062 4.523438 L 89.664062 6.585938 C 88.765625 6.121094 87.773438 5.878906 86.765625 5.878906 C 84.65625 5.878906 82.941406 7.359375 82.941406 9.480469 C 82.941406 11.605469 84.65625 13.105469 86.765625 13.105469 C 87.84375 13.132812 88.914062 12.847656 89.839844 12.289062 L 89.839844 14.320312 C 88.792969 14.933594 87.597656 15.238281 86.390625 15.207031 C 83.253906 15.199219 80.574219 12.898438 80.574219 9.453125 Z M 80.574219 9.453125 "/>
<path style=" stroke:none;fill-rule:nonzero;fill:rgb(19.607843%,24.313725%,28.235294%);fill-opacity:1;" d="M 91.042969 9.453125 C 91.042969 6.050781 93.726562 3.773438 96.886719 3.773438 C 98.015625 3.738281 99.136719 3.996094 100.136719 4.523438 L 100.136719 6.585938 C 99.246094 6.121094 98.253906 5.875 97.246094 5.871094 C 95.136719 5.871094 93.425781 7.351562 93.425781 9.472656 C 93.425781 11.597656 95.136719 13.097656 97.246094 13.097656 C 98.328125 13.125 99.394531 12.839844 100.320312 12.28125 L 100.320312 14.3125 C 99.277344 14.925781 98.082031 15.230469 96.875 15.199219 C 93.726562 15.199219 91.042969 12.898438 91.042969 9.453125 Z M 91.042969 9.453125 "/>
<path style=" stroke:none;fill-rule:nonzero;fill:rgb(19.607843%,24.313725%,28.235294%);fill-opacity:1;" d="M 113.429688 12.898438 L 113.429688 14.707031 C 113.097656 14.949219 112.503906 15.058594 112.042969 15.058594 C 110.992188 15.058594 110.089844 14.59375 109.78125 13.511719 C 109.011719 14.394531 107.695312 15.191406 105.804688 15.191406 C 103.546875 15.191406 101.765625 13.863281 101.765625 11.546875 C 101.765625 9.136719 103.5625 8.363281 105.839844 8.363281 L 109.539062 8.363281 L 109.539062 8.191406 C 109.539062 6.3125 108.046875 5.828125 106.378906 5.828125 C 105.179688 5.851562 104.003906 6.1875 102.972656 6.800781 L 102.972656 4.703125 C 103.742188 4.257812 105.015625 3.773438 106.90625 3.773438 C 109.804688 3.773438 111.894531 5.1875 111.894531 7.929688 L 111.894531 11.972656 C 111.894531 12.65625 112.269531 13.054688 112.796875 13.054688 C 113.015625 13.054688 113.234375 13 113.429688 12.898438 Z M 109.539062 10.160156 L 106.695312 10.160156 C 105.136719 10.160156 104.136719 10.488281 104.136719 11.550781 C 104.136719 12.746094 105.167969 13.140625 106.464844 13.140625 C 107.621094 13.140625 108.730469 12.671875 109.539062 11.839844 Z M 109.539062 10.160156 "/>
<path style=" stroke:none;fill-rule:nonzero;fill:rgb(19.607843%,24.313725%,28.235294%);fill-opacity:1;" d="M 115.164062 4.058594 L 117.535156 4.058594 L 117.535156 8.304688 L 123.003906 8.304688 L 123.003906 4.058594 L 125.386719 4.058594 L 125.386719 14.898438 L 123.003906 14.898438 L 123.003906 10.402344 L 117.535156 10.402344 L 117.535156 14.910156 L 115.164062 14.910156 Z M 115.164062 4.058594 "/>
<path style=" stroke:none;fill-rule:nonzero;fill:rgb(19.607843%,24.313725%,28.235294%);fill-opacity:1;" d="M 127.453125 9.453125 C 127.453125 6.050781 130.132812 3.773438 133.296875 3.773438 C 134.425781 3.738281 135.546875 3.996094 136.546875 4.523438 L 136.546875 6.585938 C 135.648438 6.121094 134.65625 5.878906 133.648438 5.878906 C 131.539062 5.878906 129.824219 7.359375 129.824219 9.480469 C 129.824219 11.605469 131.539062 13.105469 133.648438 13.105469 C 134.730469 13.132812 135.796875 12.847656 136.722656 12.289062 L 136.722656 14.320312 C 135.675781 14.933594 134.484375 15.238281 133.273438 15.207031 C 130.132812 15.199219 127.453125 12.898438 127.453125 9.453125 Z M 127.453125 9.453125 "/>
<path style=" stroke:none;fill-rule:nonzero;fill:rgb(19.607843%,24.313725%,28.235294%);fill-opacity:1;" d="M 30.96875 20.585938 L 32.054688 20.585938 L 32.054688 22.6875 L 34.007812 20.585938 L 35.339844 20.585938 L 33.089844 23.027344 L 35.722656 25.910156 L 34.328125 25.910156 L 32.054688 23.449219 L 32.054688 25.90625 L 30.96875 25.90625 Z M 30.96875 20.585938 "/>
<path style=" stroke:none;fill-rule:nonzero;fill:rgb(19.607843%,24.313725%,28.235294%);fill-opacity:1;" d="M 37.253906 20.585938 L 39.574219 20.585938 C 40.730469 20.585938 41.417969 21.257812 41.417969 22.191406 C 41.417969 23.128906 40.730469 23.796875 39.574219 23.796875 L 38.347656 23.796875 L 38.347656 25.90625 L 37.257812 25.90625 Z M 39.492188 22.867188 C 40.003906 22.867188 40.320312 22.632812 40.320312 22.207031 C 40.320312 21.777344 40.003906 21.546875 39.492188 21.546875 L 38.34375 21.546875 L 38.34375 22.867188 Z M 39.492188 22.867188 "/>
<path style=" stroke:none;fill-rule:nonzero;fill:rgb(19.607843%,24.313725%,28.235294%);fill-opacity:1;" d="M 43.054688 20.585938 L 46.941406 20.585938 L 46.941406 21.566406 L 44.148438 21.566406 L 44.148438 22.59375 L 46.398438 22.59375 L 46.398438 23.5625 L 44.144531 23.5625 L 44.144531 24.929688 L 47.027344 24.929688 L 47.027344 25.910156 L 43.054688 25.910156 Z M 43.054688 20.585938 "/>
<path style=" stroke:none;fill-rule:nonzero;fill:rgb(19.607843%,24.313725%,28.235294%);fill-opacity:1;" d="M 48.480469 24.929688 L 49 24.929688 C 49.46875 24.199219 49.695312 23.234375 49.695312 21.429688 L 49.695312 20.585938 L 53.417969 20.585938 L 53.417969 24.929688 L 54.140625 24.929688 L 54.140625 27 L 53.121094 27 L 53.121094 25.910156 L 49.5 25.910156 L 49.5 27 L 48.480469 27 Z M 52.328125 24.929688 L 52.328125 21.566406 L 50.777344 21.566406 C 50.777344 22.671875 50.71875 23.871094 50.203125 24.929688 Z M 52.328125 24.929688 "/>
<path style=" stroke:none;fill-rule:nonzero;fill:rgb(19.607843%,24.313725%,28.235294%);fill-opacity:1;" d="M 55.796875 20.585938 L 56.886719 20.585938 L 56.886719 24.054688 L 59.449219 20.582031 L 60.386719 20.582031 L 60.386719 25.910156 L 59.304688 25.910156 L 59.304688 22.421875 L 56.710938 25.910156 L 55.792969 25.910156 Z M 55.796875 20.585938 "/>
<path style=" stroke:none;fill-rule:nonzero;fill:rgb(19.607843%,24.313725%,28.235294%);fill-opacity:1;" d="M 66.464844 20.585938 L 66.464844 21.566406 L 64.785156 21.566406 L 64.785156 25.910156 L 63.699219 25.910156 L 63.699219 21.566406 L 62.027344 21.566406 L 62.027344 20.585938 Z M 66.464844 20.585938 "/>
<path style=" stroke:none;fill-rule:nonzero;fill:rgb(83.137255%,8.627451%,40.784314%);fill-opacity:1;" d="M 4.085938 26.839844 L 0.277344 26.839844 L 0.277344 10.304688 C 0.28125 4.617188 4.863281 0.0078125 10.519531 0 L 23.144531 0 L 23.144531 10.199219 C 23.140625 15.890625 18.558594 20.5 12.902344 20.507812 L 6.515625 20.507812 L 7.976562 16.671875 L 12.910156 16.671875 C 16.457031 16.664062 19.332031 13.769531 19.332031 10.199219 L 19.332031 3.835938 L 10.519531 3.835938 C 6.96875 3.839844 4.089844 6.734375 4.085938 10.304688 Z M 4.085938 26.839844 "/>
</g>
</svg>